<svg viewBox="0 0 280 238.88" xmlns="http://www.w3.org/2000/svg" xmlns:xlink="http://www.w3.org/1999/xlink"><clipPath id="a"><ellipse cx="140" cy="85.41" rx="47.39" ry="47.59"/></clipPath><ellipse cx="268.61" cy="41.15" fill="#e72147" rx="10.61" ry="10.66"/><path d="m268.61 52.31a11.16 11.16 0 1 1 11.11-11.16 11.14 11.14 0 0 1 -11.11 11.16zm0-21.32a10.17 10.17 0 1 0 10.11 10.16 10.15 10.15 0 0 0 -10.11-10.15z" fill="#221714"/><ellipse cx="268.61" cy="41.15" fill="#d1eaf8" rx="8.36" ry="8.4"/><path d="m268.61 50.05a8.9 8.9 0 1 1 8.86-8.9 8.89 8.89 0 0 1 -8.86 8.9zm0-16.8a7.91 7.91 0 1 0 7.87 7.9 7.9 7.9 0 0 0 -7.87-7.9z" fill="#221714"/><path d="m268.61 47.83a.5.5 0 0 1 -.5-.5.5.5 0 0 1 .5-.5 5.68 5.68 0 0 0 5.65-5.68.49.49 0 0 1 .49-.49.5.5 0 0 1 .5.5 6.67 6.67 0 0 1 -6.64 6.67z" fill="#221714"/><path d="m270.51 63.42h-3.8l-.86-.86v-8h5.51v8z" fill="#896138"/><path d="m270.51 63.92h-3.8a.53.53 0 0 1 -.36-.15l-.85-.86a.51.51 0 0 1 -.15-.35v-8a.5.5 0 0 1 .5-.5h5.51a.5.5 0 0 1 .5.5v8a.47.47 0 0 1 -.15.35l-.85.86a.51.51 0 0 1 -.35.15zm-3.6-1h3.39l.57-.57v-7.35h-4.52v7.33z" fill="#221714"/><path d="m266.86 51.81h3.5v2.67h-3.5z" fill="#dcdddd"/><path d="m270.35 55h-3.49a.49.49 0 0 1 -.5-.49v-2.7a.5.5 0 0 1 .5-.5h3.49a.5.5 0 0 1 .5.5v2.68a.49.49 0 0 1 -.5.51zm-3-1h2.51v-1.69h-2.51z" fill="#221714"/><path d="m222 70.81 5.87 5.89-16.55 16.6-.32-2.75-2.62-.2-.19-2.63-2.74-.31z" fill="#2eac6f"/><path d="m211.32 93.3-7 1.15 1.15-7 2.74.32.2 2.62 2.61.2z" fill="#f6d29e"/><path d="m204.3 95a.49.49 0 0 1 -.35-.15.52.52 0 0 1 -.14-.43l1.15-7a.57.57 0 0 1 .14-.28l16.52-16.59a.5.5 0 0 1 .7 0l5.87 5.89a.5.5 0 0 1 0 .7l-16.52 16.6a.54.54 0 0 1 -.27.14l-7 1.15zm1.62-7.3-1 6.2 6.18-1 16-16.13-5.1-5.26z" fill="#221714"/><path d="m210.78 93.71-.3-2.73-2.11-.15a.49.49 0 0 1 -.46-.46l-.15-2.12-2.76-.25.11-1 3.13.35a.5.5 0 0 1 .44.46l.15 2.1 2.17.09a.51.51 0 0 1 .46.45l.35 3.14z" fill="#221714"/><path d="m211 91.26-.7-.71 16.01-16.09.7.71z" fill="#221714"/><path d="m208.19 88.43-.7-.7 16.01-16.09.7.7z" fill="#221714"/><path d="m207.14 94-2.84.46.46-2.84z" fill="#221714"/><path d="m67.8 87.85-4.1 2.71 2.22 4.44-4.92.22-.25 4.94-4.4-2.23-2.69 4.13-2.66-4.13-4.39 2.24-.25-5-4.97-.17 2.23-4.41-4.11-2.71 4.11-2.71-2.23-4.41 4.93-.25.25-5 4.43 2.26 2.7-4.13 2.69 4.13 4.4-2.24.25 5 4.92.25-2.23 4.41z" fill="#fff"/><path d="m53.66 102.55a.5.5 0 0 1 -.42-.22l-2.45-3.76-4 2a.49.49 0 0 1 -.47 0 .51.51 0 0 1 -.25-.41l-.23-4.5-4.47-.22a.53.53 0 0 1 -.41-.25.51.51 0 0 1 0-.48l2-4-3.74-2.46a.51.51 0 0 1 0-.84l3.78-2.41-2-4a.51.51 0 0 1 0-.48.53.53 0 0 1 .41-.25l4.43-.27.23-4.49a.51.51 0 0 1 .25-.41.49.49 0 0 1 .47 0l4 2 2.45-3.75a.52.52 0 0 1 .83 0l2.46 3.75 4-2a.49.49 0 0 1 .47 0 .51.51 0 0 1 .25.41l.22 4.49 4.48.23a.5.5 0 0 1 .41.73l-2 4 3.74 2.46a.51.51 0 0 1 0 .84l-3.74 2.46 2 4a.48.48 0 0 1 0 .48.47.47 0 0 1 -.4.24l-4.48.23-.23 4.5a.49.49 0 0 1 -.24.4.51.51 0 0 1 -.48 0l-4-2-2.46 3.76a.49.49 0 0 1 -.41.22zm-2.66-5.12a.48.48 0 0 1 .41.23l2.29 3.49 2.28-3.49a.49.49 0 0 1 .64-.18l3.71 1.89.21-4.18a.51.51 0 0 1 .47-.47l4.16-.21-1.88-3.73a.51.51 0 0 1 .17-.64l3.48-2.29-3.48-2.29a.51.51 0 0 1 -.17-.64l1.88-3.73-4.17-.19a.51.51 0 0 1 -.47-.48l-.21-4.17-3.71 1.88a.48.48 0 0 1 -.64-.17l-2.28-3.49-2.32 3.43a.47.47 0 0 1 -.63.17l-3.74-1.84-.21 4.17a.5.5 0 0 1 -.47.48l-4.16.21 1.88 3.73a.49.49 0 0 1 -.17.64l-3.47 2.29 3.47 2.29a.49.49 0 0 1 .17.64l-1.88 3.73 4.16.21a.5.5 0 0 1 .47.47l.21 4.18 3.72-1.89a.54.54 0 0 1 .28-.05z" fill="#221714"/><path d="m50.11 90.06v-.53a3 3 0 0 1 0-.6 1.43 1.43 0 0 1 .17-.49 2.68 2.68 0 0 1 .26-.47 4.68 4.68 0 0 1 .43-.46l.62-.6a2 2 0 0 0 .43-.53 1.12 1.12 0 0 0 .2-.69 1.18 1.18 0 0 0 -.33-.89 1.26 1.26 0 0 0 -1-.37 1.18 1.18 0 0 0 -.56.13 1.66 1.66 0 0 0 -.43.3 1.06 1.06 0 0 0 -.27.47 1.5 1.5 0 0 0 -.09.52l-1.68-.16a3 3 0 0 1 .36-1.16 2.5 2.5 0 0 1 .69-.86 2.66 2.66 0 0 1 1-.53 3.39 3.39 0 0 1 1.22-.14 3.84 3.84 0 0 1 1.12.16 2.66 2.66 0 0 1 .92.5 2.2 2.2 0 0 1 .63.82 2.57 2.57 0 0 1 .2 1.08 2.44 2.44 0 0 1 -.36 1.35 3.69 3.69 0 0 1 -.43.53c-.16.17-.36.33-.56.53s-.33.3-.46.4a1.83 1.83 0 0 0 -.26.36.84.84 0 0 0 -.14.4 2.07 2.07 0 0 0 0 .5v.37h-1.68zm-.26 1.94a1 1 0 0 1 .32-.76 1.13 1.13 0 0 1 1.52 0 .9.9 0 0 1 .33.73 1.08 1.08 0 0 1 -1.09 1.03 2.14 2.14 0 0 1 -.43-.07 1.16 1.16 0 0 1 -.36-.23 1.3 1.3 0 0 1 -.23-.33 1.34 1.34 0 0 1 -.06-.4z" fill="#5bc2d9"/><path d="m55.55 92a1 1 0 0 1 .32-.76 1.13 1.13 0 0 1 1.52 0 .9.9 0 0 1 .33.73 1.08 1.08 0 0 1 -1.09 1.03 2.14 2.14 0 0 1 -.43-.07 1.16 1.16 0 0 1 -.36-.23 1.3 1.3 0 0 1 -.23-.33 1.34 1.34 0 0 1 -.06-.37zm1.87-2.08h-1.61v-6.68h1.61z" fill="#5bc2d9"/><path d="m267.19 84.56c0 1.31-2.14 2.3-2.52 3.49s.74 3.29 0 4.3-3 .57-4.08 1.35-1.28 3.07-2.53 3.49-2.76-1.34-4.07-1.34-2.89 1.73-4.08 1.34-1.48-2.75-2.53-3.49-3.33-.3-4.07-1.35.39-3.07 0-4.3-2.53-2.15-2.53-3.49 2.14-2.3 2.53-3.5-.74-3.28 0-4.3 3-.57 4.07-1.34 1.28-3.08 2.53-3.5 2.77 1.35 4.08 1.35 2.88-1.74 4.07-1.35 1.49 2.75 2.53 3.5 3.33.3 4.08 1.34-.39 3.08 0 4.3 2.52 2.18 2.52 3.5z" fill="#fff"/><path d="m250.29 97.75a1.89 1.89 0 0 1 -.53-.08c-.87-.28-1.31-1.21-1.73-2.1a2.35 2.35 0 0 0 -2.6-1.9 3.41 3.41 0 0 1 -2.52-1 3.53 3.53 0 0 1 -.18-2.71 4.25 4.25 0 0 0 .11-1.73 3.94 3.94 0 0 0 -1.07-1.27 3.63 3.63 0 0 1 -1.49-2.37 3.57 3.57 0 0 1 1.48-2.35 3.93 3.93 0 0 0 1.08-1.3 4.3 4.3 0 0 0 -.11-1.74 3.5 3.5 0 0 1 .18-2.7 3.41 3.41 0 0 1 2.5-1 4 4 0 0 0 1.68-.44 3.86 3.86 0 0 0 .92-1.45c.42-.9.85-1.82 1.75-2.12a3.39 3.39 0 0 1 2.58.67 2.41 2.41 0 0 0 3.29 0 3.4 3.4 0 0 1 2.59-.67c.87.28 1.31 1.2 1.73 2.1a4.09 4.09 0 0 0 .93 1.46 4.17 4.17 0 0 0 1.66.44 3.49 3.49 0 0 1 2.53 1 3.56 3.56 0 0 1 .17 2.72 4 4 0 0 0 -.1 1.72 4 4 0 0 0 1.09 1.33 3.48 3.48 0 0 1 1.46 2.32 3.49 3.49 0 0 1 -1.48 2.34 4 4 0 0 0 -1.07 1.31 4.06 4.06 0 0 0 .1 1.73 3.53 3.53 0 0 1 -.17 2.71 3.44 3.44 0 0 1 -2.5 1 2.4 2.4 0 0 0 -2.61 1.9c-.42.89-.85 1.82-1.74 2.11a3.41 3.41 0 0 1 -2.58-.66 4.14 4.14 0 0 0 -1.65-.65 4.09 4.09 0 0 0 -1.65.65 4.58 4.58 0 0 1 -2.05.73zm3.7-2.4a4.68 4.68 0 0 1 2.12.77c.67.37 1.35.74 1.8.6s.83-.89 1.15-1.6a4.57 4.57 0 0 1 1.24-1.83 4.75 4.75 0 0 1 2.14-.63c.76-.1 1.54-.2 1.82-.6s.14-1.18 0-1.94a4.81 4.81 0 0 1 -.08-2.22 4.69 4.69 0 0 1 1.34-1.72c.57-.54 1.17-1.1 1.17-1.62s-.59-1.06-1.15-1.6a4.51 4.51 0 0 1 -1.36-1.75 4.72 4.72 0 0 1 .08-2.2c.14-.77.28-1.55 0-2s-1.08-.51-1.85-.61a4.78 4.78 0 0 1 -2.11-.62 4.59 4.59 0 0 1 -1.25-1.78c-.33-.7-.67-1.42-1.14-1.57s-1.13.23-1.8.59a3.28 3.28 0 0 1 -4.25 0c-.66-.36-1.35-.74-1.79-.59s-.83.89-1.16 1.59a4.5 4.5 0 0 1 -1.24 1.83 4.44 4.44 0 0 1 -2.14.63c-.75.1-1.53.2-1.82.6s-.14 1.18 0 1.94a4.8 4.8 0 0 1 .07 2.22 4.54 4.54 0 0 1 -1.34 1.73c-.57.54-1.16 1.1-1.16 1.62s.59 1.1 1.17 1.64a4.52 4.52 0 0 1 1.33 1.7 4.76 4.76 0 0 1 -.07 2.21c-.14.76-.29 1.55 0 2s1.09.52 1.85.62a4.74 4.74 0 0 1 2.11.61 4.49 4.49 0 0 1 1.25 1.85c.34.7.68 1.43 1.14 1.58s1.14-.23 1.8-.6a4.72 4.72 0 0 1 2.14-.85z" fill="#221714"/><path d="m257.52 89.59a1.2 1.2 0 0 1 -1-.41c-.59-.68-.89-2.28.21-4.53a7.53 7.53 0 0 1 1.57-2.18 3.23 3.23 0 0 0 -1.4-1.09 2 2 0 0 0 -1.54.23 3.89 3.89 0 0 0 -1.1 1 2.48 2.48 0 0 1 .83 1.46c.16.86.2 3.09-.7 4.1a1.43 1.43 0 0 1 -1.14.51 1.06 1.06 0 0 1 -.77-.36c-.51-.54-.65-1.56-.42-3.14a7 7 0 0 1 .74-2.15 3.71 3.71 0 0 0 -2.2.46c.18 2-.33 4.1-1 4.72a1.18 1.18 0 0 1 -1 .37 1 1 0 0 1 -.65-.43 2.51 2.51 0 0 1 -.21-1.35 5.86 5.86 0 0 1 1.83-3.8c0-.08 0-.17 0-.26-.07-.27-.4-1.14-.89-1.36a.72.72 0 0 0 -.64.06c-.68.35-.78 1.55-.77 2a.51.51 0 0 1 -.47.52.5.5 0 0 1 -.52-.48c0-.09-.08-2.22 1.31-2.92a1.68 1.68 0 0 1 1.49-.08 3.21 3.21 0 0 1 1.44 2 4.68 4.68 0 0 1 2.76-.37h.18v-.06a5 5 0 0 1 1.42-1.35 3 3 0 0 1 2.32-.34 4.37 4.37 0 0 1 1.92 1.46 3.34 3.34 0 0 1 3.36 0 .5.5 0 0 1 -.6.8 2.42 2.42 0 0 0 -2.25 0 6 6 0 0 1 .44 3.24c-.3 2.65-1.42 3.36-2.05 3.55a1.71 1.71 0 0 1 -.5.18zm1.3-6.21a6.65 6.65 0 0 0 -1.16 1.7c-1 2-.6 3.18-.36 3.46a.57.57 0 0 0 .49 0c.3-.12 1-.62 1.28-2.7a5.17 5.17 0 0 0 -.25-2.46zm-5.54 4.34a.43.43 0 0 0 .37-.17 5 5 0 0 0 .46-3.27 1.49 1.49 0 0 0 -.4-.79 6.13 6.13 0 0 0 -.67 1.88c-.23 1.81.11 2.3.24 2.35zm-3.6-3.36a5.31 5.31 0 0 0 -.94 2.55 1.49 1.49 0 0 0 .07.7l.14-.1a5.76 5.76 0 0 0 .73-3.15z" fill="#f6b37e"/><path d="m170.79 7.78h-.17a5.47 5.47 0 0 0 -9.27-4 5.49 5.49 0 0 0 -9.28 4h-.17a5.52 5.52 0 0 0 0 11h.17a5.49 5.49 0 0 0 9.28 4 5.48 5.48 0 0 0 9.27-4h.17a5.52 5.52 0 0 0 0-11z" fill="#fff"/><path d="m165.13 24.83a5.91 5.91 0 0 1 -3.78-1.35 6 6 0 0 1 -9.76-4.18 6 6 0 0 1 0-12 6.05 6.05 0 0 1 1.63-3.67 6 6 0 0 1 8.13-.51 5.89 5.89 0 0 1 3.78-1.35 6 6 0 0 1 6 5.53 6 6 0 0 1 0 12 6 6 0 0 1 -1.66 3.7 5.91 5.91 0 0 1 -4.19 1.87zm-3.78-2.52a.51.51 0 0 1 .34.14 5 5 0 0 0 7.06-.17 5 5 0 0 0 1.38-3.46.52.52 0 0 1 .14-.36.52.52 0 0 1 .35-.14h.17a4.93 4.93 0 0 0 3.49-1.55 5 5 0 0 0 -3.46-8.49h-.2a.52.52 0 0 1 -.35-.14.52.52 0 0 1 -.14-.36 5 5 0 0 0 -5-5 4.93 4.93 0 0 0 -3.44 1.39.51.51 0 0 1 -.69 0 5 5 0 0 0 -8.43 3.63.53.53 0 0 1 -.15.36.5.5 0 0 1 -.35.14h-.17a5 5 0 0 0 0 10h.16a.5.5 0 0 1 .5.5 5 5 0 0 0 8.44 3.65.48.48 0 0 1 .35-.14z" fill="#221714"/><ellipse cx="156.1" cy="11.88" fill="#9fcd6a" rx="2.35" ry="2.36"/><path d="m156.1 14.75a2.87 2.87 0 1 1 2.9-2.87 2.87 2.87 0 0 1 -2.9 2.87zm0-4.73a1.87 1.87 0 1 0 1.9 1.86 1.86 1.86 0 0 0 -1.9-1.88z" fill="#221714"/><path d="m161.17 14.73h4.43v4.45h-4.43z" fill="#e2860f"/><path d="m165.6 19.67h-4.43a.5.5 0 0 1 -.5-.5v-4.44a.5.5 0 0 1 .5-.5h4.43a.49.49 0 0 1 .49.5v4.44a.49.49 0 0 1 -.49.5zm-3.94-1h3.44v-3.45h-3.44z" fill="#221714"/><path d="m165.91 6.69-2.67 4.64h5.33z" fill="#e6cf2f"/><path d="m168.57 11.83h-5.33a.5.5 0 0 1 -.43-.75l2.67-4.64a.49.49 0 0 1 .43-.25.52.52 0 0 1 .43.25l2.66 4.64a.5.5 0 0 1 0 .5.48.48 0 0 1 -.43.25zm-4.47-1h3.61l-1.8-3.14z" fill="#221714"/><path d="m199.01 107.34h26.26v21.08h-26.26z" fill="#fff"/><path d="m225.27 128.92h-26.27a.49.49 0 0 1 -.5-.49v-21.09a.49.49 0 0 1 .5-.49h26.26a.49.49 0 0 1 .49.49v21.09a.49.49 0 0 1 -.48.49zm-25.77-1h25.27v-20.08h-25.27z" fill="#221714"/><path d="m220 128.81a.49.49 0 0 1 -.49-.5v-1.31a.5.5 0 1 1 1 0v1.32a.5.5 0 0 1 -.51.49z" fill="#221714"/><path d="m214.73 128.81a.5.5 0 0 1 -.5-.5v-1.31a.5.5 0 1 1 1 0v1.32a.5.5 0 0 1 -.5.49z" fill="#221714"/><path d="m209.46 128.81a.5.5 0 0 1 -.5-.5v-1.31a.5.5 0 1 1 1 0v1.32a.5.5 0 0 1 -.5.49z" fill="#221714"/><path d="m204.22 128.81a.5.5 0 0 1 -.5-.5v-1.31a.5.5 0 1 1 1 0v1.32a.49.49 0 0 1 -.5.49z" fill="#221714"/><path d="m200.58 123.63h-1.35a.5.5 0 1 1 0-1h1.35a.5.5 0 0 1 0 1z" fill="#221714"/><path d="m200.58 118.37h-1.35a.5.5 0 0 1 -.5-.5.51.51 0 0 1 .5-.5h1.35a.5.5 0 0 1 .49.5.49.49 0 0 1 -.49.5z" fill="#221714"/><path d="m200.58 113.11h-1.35a.51.51 0 0 1 -.5-.5.5.5 0 0 1 .5-.5h1.35a.49.49 0 0 1 .49.5.5.5 0 0 1 -.49.5z" fill="#221714"/><path d="m202.93 125.12a.41.41 0 0 1 -.19 0 .5.5 0 0 1 -.27-.65l3.93-9.23a.47.47 0 0 1 .41-.3.46.46 0 0 1 .45.22l4.73 7.13 2.42-3.51a.49.49 0 0 1 .37-.21.5.5 0 0 1 .4.16l1.95 2.2 4.26-10.16a.49.49 0 0 1 .65-.27.51.51 0 0 1 .27.65l-4.57 10.85a.51.51 0 0 1 -.38.3.48.48 0 0 1 -.45-.16l-2-2.31-2.47 3.59a.5.5 0 0 1 -.82 0l-4.62-7-3.56 8.38a.5.5 0 0 1 -.51.32z" fill="#2c7ec2"/><path d="m27.78 121.57-4.05-14.07.96-.28 4.04 14.08z" fill="#221714"/><path d="m13.01 124.26-.18-.98 15.69-2.9.18.97z" fill="#221714"/><path d="m13.35 124.38-11.61-13.97.76-.64 11.61 13.97z" fill="#221714"/><path d="m4.5 131.13-.6-.79 9.6-7.36.6.79z" fill="#221714"/><path d="m13.64 124.34-.89-.43 4.26-8.8.9.43z" fill="#221714"/><path d="m28.36 121.62-11.78-5.61.43-.9 11.77 5.61z" fill="#221714"/><path d="m17.54 116.41-15.73-5.63.33-.94 15.74 5.63z" fill="#221714"/><path d="m17.28 116.48-.74-.67 7.77-8.67.74.66z" fill="#221714"/><path d="m24.57 108.51-7.96-4 .44-.89 7.96 4z" fill="#221714"/><ellipse cx="2.44" cy="110.47" fill="#f1ab3e" rx="1.95" ry="1.95"/><path d="m2.44 112.93a2.46 2.46 0 1 1 2.44-2.46 2.45 2.45 0 0 1 -2.44 2.46zm0-3.91a1.46 1.46 0 1 0 1.45 1.45 1.45 1.45 0 0 0 -1.45-1.47z" fill="#221714"/><path d="m24.59 108.5-.9-.42 4.75-10.29.9.42z" fill="#221714"/><ellipse cx="28.68" cy="98.45" fill="#f1ab3e" rx="1.95" ry="1.95"/><path d="m28.68 100.91a2.46 2.46 0 1 1 2.44-2.46 2.45 2.45 0 0 1 -2.44 2.46zm0-3.91a1.46 1.46 0 1 0 1.45 1.45 1.45 1.45 0 0 0 -1.45-1.45z" fill="#221714"/><path d="m37.08 124.91-9.6-3.67.35-.93 9.6 3.67z" fill="#221714"/><ellipse cx="36.79" cy="124.27" fill="#e55927" rx="1.95" ry="1.95"/><path d="m36.79 126.72a2.45 2.45 0 1 1 2.44-2.45 2.45 2.45 0 0 1 -2.44 2.45zm0-3.91a1.46 1.46 0 1 0 1.45 1.46 1.46 1.46 0 0 0 -1.45-1.46z" fill="#221714"/><ellipse cx="17.24" cy="115.77" fill="#e55927" rx="1.95" ry="1.95"/><path d="m17.24 118.23a2.46 2.46 0 1 1 2.44-2.46 2.45 2.45 0 0 1 -2.44 2.46zm0-3.91a1.46 1.46 0 1 0 1.45 1.45 1.45 1.45 0 0 0 -1.45-1.45z" fill="#221714"/><ellipse cx="17.27" cy="104.29" fill="#e55927" rx="1.95" ry="1.95"/><path d="m17.27 106.74a2.46 2.46 0 1 1 2.44-2.45 2.45 2.45 0 0 1 -2.44 2.45zm0-3.91a1.46 1.46 0 1 0 1.45 1.46 1.45 1.45 0 0 0 -1.45-1.46z" fill="#221714"/><ellipse cx="28.12" cy="120.95" fill="#5ab9d4" rx="1.95" ry="1.95"/><path d="m28.12 123.41a2.46 2.46 0 1 1 2.44-2.41 2.45 2.45 0 0 1 -2.44 2.41zm0-3.91a1.46 1.46 0 1 0 1.45 1.5 1.45 1.45 0 0 0 -1.45-1.5z" fill="#221714"/><ellipse cx="13.41" cy="123.68" fill="#5ab9d4" rx="1.95" ry="1.95"/><path d="m13.41 126.13a2.45 2.45 0 1 1 2.44-2.45 2.45 2.45 0 0 1 -2.44 2.45zm0-3.91a1.46 1.46 0 1 0 1.45 1.46 1.46 1.46 0 0 0 -1.45-1.46z" fill="#221714"/><ellipse cx="4.59" cy="130.43" fill="#f1ab3e" rx="1.95" ry="1.95"/><path d="m4.59 132.88a2.45 2.45 0 1 1 2.41-2.45 2.45 2.45 0 0 1 -2.41 2.45zm0-3.91a1.46 1.46 0 1 0 1.41 1.46 1.46 1.46 0 0 0 -1.41-1.43z" fill="#221714"/><ellipse cx="24.35" cy="107.84" fill="#5ab9d4" rx="1.95" ry="1.95"/><path d="m24.35 110.29a2.45 2.45 0 1 1 2.44-2.45 2.45 2.45 0 0 1 -2.44 2.45zm0-3.91a1.46 1.46 0 1 0 1.45 1.46 1.46 1.46 0 0 0 -1.45-1.46z" fill="#221714"/><path d="m4.2 5.21h21.25v16.16h-21.25z" fill="#fff"/><path d="m25.44 21.86h-21.24a.49.49 0 0 1 -.5-.49v-16.16a.5.5 0 0 1 .5-.5h21.24a.5.5 0 0 1 .5.5v16.16a.49.49 0 0 1 -.5.49zm-20.75-1h20.31v-15.15h-20.31z" fill="#221714"/><path d="m2.35 3.35h21.25v16.16h-21.25z" fill="#fff"/><path d="m23.59 20h-21.24a.5.5 0 0 1 -.5-.5v-16.15a.5.5 0 0 1 .5-.5h21.24a.5.5 0 0 1 .5.5v16.16a.5.5 0 0 1 -.5.49zm-20.75-1h20.26v-15.15h-20.26z" fill="#221714"/><path d="m.5 1.49h21.25v16.16h-21.25z" fill="#fff"/><path d="m21.74 18.15h-21.24a.5.5 0 0 1 -.5-.5v-16.16a.49.49 0 0 1 .5-.49h21.24a.49.49 0 0 1 .5.49v16.16a.5.5 0 0 1 -.5.5zm-20.74-1h20.25v-15.15h-20.25z" fill="#221714"/><path d="m3.35 4.37h4.99v6.25h-4.99z" fill="#d0d72f"/><path d="m8.34 11.11h-5a.49.49 0 0 1 -.49-.5v-6.24a.49.49 0 0 1 .49-.5h5a.5.5 0 0 1 .5.5v6.24a.5.5 0 0 1 -.5.5zm-4.49-1h4v-5.25h-4z" fill="#221714"/><path d="m10.9 3.84h8.5v1h-8.5z" fill="#221714"/><path d="m10.9 14.28h8.5v1h-8.5z" fill="#221714"/><path d="m10.9 12.2h8.5v1h-8.5z" fill="#221714"/><path d="m10.9 10.12h8.5v1h-8.5z" fill="#221714"/><path d="m2.86 14.28h5.98v1h-5.98z" fill="#221714"/><path d="m2.86 12.2h5.98v1h-5.98z" fill="#221714"/><path d="m10.9 8.03h8.5v1h-8.5z" fill="#221714"/><path d="m10.9 5.95h8.5v1h-8.5z" fill="#221714"/><path d="m113.79 12.12a8.75 8.75 0 1 0 -12 8.19v2.14h6.44v-2.14a8.8 8.8 0 0 0 5.56-8.19z" fill="#f5e928"/><path d="m108.24 23h-6.44a.5.5 0 0 1 -.5-.5v-1.86a9.31 9.31 0 0 1 -2.82-15 9.17 9.17 0 0 1 6.52-2.77 9.27 9.27 0 0 1 9.25 9.25 9.27 9.27 0 0 1 -5.55 8.53v1.8a.5.5 0 0 1 -.46.55zm-5.95-1h5.46v-1.69a.5.5 0 0 1 .31-.46 8.28 8.28 0 0 0 -3-16 8.28 8.28 0 0 0 -8.23 8.32 8.25 8.25 0 0 0 5.17 7.68.49.49 0 0 1 .31.46z" fill="#221714"/><path d="m107.1 26.11h-4.1a1.18 1.18 0 0 1 -1.18-1.18v-4.62h6.44v4.69a1.11 1.11 0 0 1 -1.08 1.15z" fill="#dcdddd"/><path d="m107.13 26.61h-4.13a1.7 1.7 0 0 1 -1.68-1.68v-4.62a.49.49 0 0 1 .5-.49h6.44a.49.49 0 0 1 .5.49v4.69a1.62 1.62 0 0 1 -1.57 1.65zm0-1a.61.61 0 0 0 .44-.19.66.66 0 0 0 .17-.45v-4.16h-5.46v4.12a.7.7 0 0 0 .69.68z" fill="#221714"/><path d="m106.39 28.05h-2.71l-.93-1.94h4.57z" fill="#dcdddd"/><path d="m106.39 28.55h-2.71a.49.49 0 0 1 -.45-.28l-.93-1.94a.51.51 0 0 1 0-.48.49.49 0 0 1 .42-.24h4.57a.49.49 0 0 1 .42.24.51.51 0 0 1 0 .48l-.93 1.94a.49.49 0 0 1 -.39.28zm-2.4-1h2.09l.45-.95h-3z" fill="#221714"/><path d="m101.83 23.43a.5.5 0 0 1 -.07-1l6.47-.93a.5.5 0 0 1 .56.42.51.51 0 0 1 -.42.57l-6.47.92z" fill="#221714"/><path d="m101.83 25.15a.49.49 0 0 1 -.49-.43.5.5 0 0 1 .42-.57l6.47-.92a.49.49 0 1 1 .14 1l-6.47.93z" fill="#221714"/><path d="m105.61 18.84a.5.5 0 0 1 -.5-.5.51.51 0 0 1 .5-.5 5.39 5.39 0 0 0 5.39-5.38.5.5 0 0 1 .5-.5.5.5 0 0 1 .49.5 6.38 6.38 0 0 1 -6.35 6.38z" fill="#221714"/><path d="m113.77 5.75a.5.5 0 0 1 -.35-.85l1.9-1.9a.49.49 0 0 1 .7.7l-1.9 1.92a.54.54 0 0 1 -.35.13z" fill="#221714"/><path d="m115.92 8.31a.48.48 0 0 1 -.48-.4.49.49 0 0 1 .39-.58l2.61-.51a.5.5 0 0 1 .19 1l-2.63.49z" fill="#221714"/><path d="m111.27 3.64h-.09a.49.49 0 0 1 -.4-.57l.48-2.65a.5.5 0 1 1 1 .18l-.48 2.64a.49.49 0 0 1 -.51.4z" fill="#221714"/><ellipse cx="33.13" cy="40.99" fill="#a27a51" rx="12.33" ry="12.38"/><path d="m33.13 53.87a12.88 12.88 0 1 1 12.87-12.87 12.87 12.87 0 0 1 -12.87 12.87zm0-24.77a11.89 11.89 0 1 0 11.87 11.9 11.88 11.88 0 0 0 -11.87-11.9z" fill="#221714"/><ellipse cx="33.13" cy="40.99" fill="#e6e6e5" rx="10.23" ry="10.27"/><path d="m33.13 51.76a10.77 10.77 0 1 1 10.73-10.76 10.76 10.76 0 0 1 -10.73 10.76zm0-20.55a9.78 9.78 0 1 0 9.74 9.79 9.77 9.77 0 0 0 -9.74-9.79z" fill="#221714"/><path d="m33.13 33a.49.49 0 0 1 -.49-.5v-1.42a.5.5 0 1 1 1 0v1.38a.5.5 0 0 1 -.51.54z" fill="#221714"/><path d="m37.39 34.09a.59.59 0 0 1 -.25-.07.5.5 0 0 1 -.17-.69l.7-1.18a.49.49 0 0 1 .68-.17.5.5 0 0 1 .17.68l-.7 1.18a.5.5 0 0 1 -.43.25z" fill="#221714"/><path d="m40.51 37.21a.5.5 0 0 1 -.25-.93l1.21-.68a.5.5 0 0 1 .48.87l-1.2.68a.53.53 0 0 1 -.24.06z" fill="#221714"/><path d="m43 41.49h-1.35a.5.5 0 0 1 0-1h1.35a.5.5 0 0 1 0 1z" fill="#221714"/><path d="m41.71 46.47a.45.45 0 0 1 -.25-.07l-1.2-.7a.49.49 0 0 1 -.18-.68.48.48 0 0 1 .67-.18l1.21.7a.5.5 0 0 1 -.25.93z" fill="#221714"/><path d="m38.09 50.1a.48.48 0 0 1 -.42-.25l-.67-1.21a.51.51 0 0 1 .18-.68.49.49 0 0 1 .68.18l.7 1.21a.49.49 0 0 1 -.18.68.45.45 0 0 1 -.29.07z" fill="#221714"/><path d="m33.13 51.42a.49.49 0 0 1 -.49-.49v-1.38a.5.5 0 1 1 1 0v1.38a.49.49 0 0 1 -.51.49z" fill="#221714"/><path d="m28.2 50.1a.45.45 0 0 1 -.2-.1.49.49 0 0 1 -.18-.68l.7-1.21a.5.5 0 1 1 .86.5l-.7 1.21a.5.5 0 0 1 -.48.28z" fill="#221714"/><path d="m24.58 46.47a.5.5 0 0 1 -.42-.24.51.51 0 0 1 .17-.69l1.18-.7a.5.5 0 1 1 .5.86l-1.17.7a.48.48 0 0 1 -.26.07z" fill="#221714"/><path d="m24.64 41.49h-1.37a.5.5 0 0 1 0-1h1.37a.5.5 0 0 1 0 1z" fill="#221714"/><path d="m25.76 37.24a.45.45 0 0 1 -.25-.07l-1.18-.71a.5.5 0 0 1 -.17-.68.49.49 0 0 1 .68-.17l1.17.7a.5.5 0 0 1 .18.68.51.51 0 0 1 -.43.25z" fill="#221714"/><path d="m28.9 34.09a.51.51 0 0 1 -.43-.25l-.7-1.18a.5.5 0 0 1 .86-.51l.7 1.18a.51.51 0 0 1 -.18.69.52.52 0 0 1 -.25.07z" fill="#221714"/><path d="m28.73 45.44 5.27-3.63 3.61-5.24-5.26 3.63z" fill="#e71f19"/><path d="m28.73 45.94a.49.49 0 0 1 -.35-.15.51.51 0 0 1 -.06-.64l3.62-5.23a.53.53 0 0 1 .13-.13l5.21-3.63a.5.5 0 0 1 .69.69l-3.61 5.24a.8.8 0 0 1 -.13.13l-5.23 3.63a.47.47 0 0 1 -.27.09zm4-5.38-2 2.9 2.89-2 2-2.9z" fill="#221714"/><path d="m32.35 40.2-3.62 5.24 5.27-3.63z" fill="#fff"/><path d="m28.73 45.94a.49.49 0 0 1 -.35-.15.51.51 0 0 1 -.06-.64l3.62-5.23a.49.49 0 0 1 .36-.21.5.5 0 0 1 .4.14l1.6 1.61a.51.51 0 0 1 .14.39.51.51 0 0 1 -.21.37l-5.23 3.63a.47.47 0 0 1 -.27.09zm3.69-5-1.72 2.52 2.48-1.72z" fill="#221714"/><ellipse cx="140" cy="85.41" fill="#df600e" rx="53.47" ry="53.7"/><path d="m140 140a54.59 54.59 0 1 1 54.36-54.59 54.53 54.53 0 0 1 -54.36 54.59zm0-107.39a52.8 52.8 0 1 0 52.58 52.8 52.75 52.75 0 0 0 -52.58-52.8z" fill="#221714"/><ellipse cx="140" cy="85.41" fill="#fff" rx="47.39" ry="47.59"/><g clip-path="url(#a)"><path d="m107.1 64.44-1.73-10.7 10.63 1.74-.45 4.19-4 .29-.28 4z" fill="#f6d29e"/><path d="m180.09 119.82-8.92 9-64.07-64.38 4.18-.49.28-4 4-.29.45-4.19z" fill="#59ab34"/><g fill="#221714"><path d="m171.17 129.67a.89.89 0 0 1 -.63-.26l-64.07-64.34a.89.89 0 0 1 .53-1.52l3.44-.4.23-3.26a.9.9 0 0 1 .83-.83l3.26-.23.37-3.45a.92.92 0 0 1 .59-.75.89.89 0 0 1 .93.22l64.07 64.33a.91.91 0 0 1 0 1.27l-8.92 9a.91.91 0 0 1 -.63.22zm-62.17-64.55 62.13 62.39 7.66-7.69-62.08-62.38-.26 2.33a.89.89 0 0 1 -.82.8l-3.23.23-.23 3.2a.9.9 0 0 1 -.79.82z"/><path d="m171.17 129.67a.89.89 0 0 1 -.63-.26l-64.07-64.34a.89.89 0 0 1 -.25-.49l-1.74-10.7a.9.9 0 0 1 1-1l10.65 1.74a.84.84 0 0 1 .49.26l64.07 64.33a.91.91 0 0 1 0 1.27l-8.92 9a.91.91 0 0 1 -.6.19zm-63.24-65.67 63.24 63.5 7.66-7.69-63.24-63.5-9.14-1.5z"/><path d="m107.2 65.33-.2-1.78 3.44-.4.23-3.26a.9.9 0 0 1 .83-.83l3.26-.23.37-3.45 1.78.2-.46 4.19a.89.89 0 0 1 -.82.8l-3.23.23-.23 3.2a.89.89 0 0 1 -.79.82z"/><path d="m172.84 127.07-62.2-62.48 1.27-1.27 62.19 62.48z"/><path d="m177.13 122.76-62.19-62.45 1.26-1.27 62.19 62.45z"/><path d="m106.08 58.05-.71-4.31 4.29.68z"/></g><path d="m164 55.48 10.65-1.74-1.76 10.7-4.17-.44-.31-4-4-.29z" fill="#f6d29e"/><path d="m109.26 128.32-8.92-8.93 63.66-63.91.45 4.19 4 .29.31 4 4.15.49z" fill="#1ba3cd"/><g fill="#221714"><path d="m109.26 129.21a.85.85 0 0 1 -.63-.26l-8.92-8.95a.87.87 0 0 1 0-1.26l63.64-63.91a.84.84 0 0 1 .49-.26l10.65-1.74a.92.92 0 0 1 .78.26.89.89 0 0 1 .24.78l-1.76 10.69a.83.83 0 0 1 -.25.49l-63.61 63.95a.85.85 0 0 1 -.63.21zm-7.66-9.82 7.66 7.66 62.74-63.05 1.51-9.19-9.14 1.5z"/><path d="m172.77 65.33-4.15-.49a.91.91 0 0 1 -.79-.82l-.25-3.22-3.21-.23a.89.89 0 0 1 -.82-.8l-.46-4.19 1.78-.2.37 3.45 3.24.23a.9.9 0 0 1 .82.83l.26 3.26 3.42.4z"/><path d="m103.27 122.33-1.26-1.26 61.79-62.03 1.27 1.27z"/><path d="m107.56 126.64-1.26-1.26 61.79-62.06 1.27 1.27z"/><path d="m170.32 54.42 4.31-.68-.71 4.31z"/></g><path d="m136.16 69.66a4 4 0 1 1 7.9 0" fill="#eeb022"/><path d="m145 69.66h-1.79a3.06 3.06 0 1 0 -6.11 0h-1.79a4.85 4.85 0 1 1 9.69 0z" fill="#221714"/><path d="m113.61 93.71c0-14.69 11.84-24.54 26.48-24.54s26.48 9.83 26.48 24.54z" fill="#eeb022"/><path d="m166.57 94.61h-53a.9.9 0 0 1 -.9-.9 24.42 24.42 0 0 1 8.05-18.45 30.24 30.24 0 0 1 38.65 0 24.42 24.42 0 0 1 8.05 18.45.89.89 0 0 1 -.85.9zm-52.06-1.8h51.15a22.57 22.57 0 0 0 -7.44-16.21 28.45 28.45 0 0 0 -36.27 0 22.57 22.57 0 0 0 -7.44 16.21z" fill="#221714"/><path d="m113.61 93.71h52.96v5.08h-52.96z" fill="#eeb022"/><path d="m166.57 99.69h-53a.9.9 0 0 1 -.9-.9v-5.08a.9.9 0 0 1 .9-.9h53a.9.9 0 0 1 .89.9v5.08a.9.9 0 0 1 -.89.9zm-52.07-1.8h51.17v-3.28h-51.17z" fill="#221714"/><path d="m175.09 106.18h-70l8.5-7.39h53z" fill="#eeb022"/><path d="m175.09 107.08h-70a.91.91 0 0 1 -.84-.59.89.89 0 0 1 .26-1l8.49-7.38a.9.9 0 0 1 .59-.22h53a.9.9 0 0 1 .59.22l8.49 7.39a.89.89 0 0 1 .26 1 .91.91 0 0 1 -.84.58zm-67.59-1.8h65.19l-6.43-5.59h-52.32z" fill="#221714"/><path d="m125.21 93.71h-1.79c0-9.06 3.83-21.14 14.61-25.37l.65 1.67c-6.22 2.44-13.47 10.11-13.47 23.7z" fill="#221714"/><path d="m139.22 69.2h1.79v24.51h-1.79z" fill="#221714"/><path d="m156.78 93.71h-1.78c0-13.59-7.26-21.26-13.47-23.7l.65-1.67a21.42 21.42 0 0 1 11.16 10.52 33.08 33.08 0 0 1 3.44 14.85z" fill="#221714"/><path d="m178.47 91.17v2.17a2.7 2.7 0 1 1 -5.4 0v-2.17z" fill="#b3b2a8"/><path d="m175.77 97a3.6 3.6 0 0 1 -3.59-3.61v-2.22a.89.89 0 0 1 .89-.89h5.4a.89.89 0 0 1 .89.89v2.17a3.6 3.6 0 0 1 -3.59 3.66zm-1.77-4.93v1.27a1.81 1.81 0 0 0 3.62 0v-1.27z" fill="#211613"/><path d="m178.5 88.66h-5.4a69.78 69.78 0 0 0 -1.82-7c-1-3.08-.82-7.48 3.38-7.48 3.61 0 5.37 3.17 5.37 6.25a23.14 23.14 0 0 1 -1.53 8.23z" fill="#b3b2a8"/><path d="m178.5 89.56h-5.4a.89.89 0 0 1 -.87-.72 70.77 70.77 0 0 0 -1.8-6.87c-.66-2.12-.89-5 .47-6.92a4.42 4.42 0 0 1 3.76-1.72c4.11 0 6.27 3.59 6.27 7.14a23.76 23.76 0 0 1 -1.6 8.51.88.88 0 0 1 -.83.58zm-4.68-1.8h4.06a22 22 0 0 0 1.26-7.29c0-2.58-1.4-5.35-4.48-5.35a2.68 2.68 0 0 0 -2.32 1c-1 1.33-.72 3.7-.21 5.32.66 2.06 1.23 4.19 1.69 6.32z" fill="#211613"/><path d="m170.8 77.18h8.81v1.79h-8.81z" fill="#211613"/><path d="m171.28 80.92h8.69v1.79h-8.69z" fill="#211613"/><path d="m172.36 84.63h7.07v1.79h-7.07z" fill="#211613"/><path d="m101.53 91.17v2.17a2.7 2.7 0 1 0 5.4 0v-2.17z" fill="#b3b2a8"/><path d="m104.23 97a3.6 3.6 0 0 1 -3.59-3.61v-2.22a.89.89 0 0 1 .89-.89h5.4a.89.89 0 0 1 .89.89v2.17a3.6 3.6 0 0 1 -3.59 3.66zm-1.81-4.88v1.27a1.81 1.81 0 0 0 3.62 0v-1.32z" fill="#211613"/><path d="m101.47 88.66h5.4q.73-3.52 1.82-7c1-3.08.82-7.48-3.38-7.48-3.61 0-5.37 3.17-5.37 6.25a23.14 23.14 0 0 0 1.53 8.23z" fill="#b3b2a8"/><path d="m106.87 89.56h-5.4a.88.88 0 0 1 -.83-.58 23.73 23.73 0 0 1 -1.59-8.5c0-3.56 2.15-7.15 6.26-7.15a4.39 4.39 0 0 1 3.76 1.72c1.36 1.87 1.14 4.8.47 6.92a70.72 70.72 0 0 0 -1.79 6.87.91.91 0 0 1 -.88.72zm-4.78-1.8h4.06c.46-2.13 1-4.26 1.69-6.33.51-1.62.76-4-.21-5.32a2.68 2.68 0 0 0 -2.32-1c-3.08 0-4.48 2.77-4.48 5.35a22 22 0 0 0 1.26 7.3z" fill="#211613"/><path d="m100.37 77.18h8.81v1.79h-8.81z" fill="#211613"/><path d="m100.02 80.92h8.67v1.79h-8.67z" fill="#211613"/><path d="m100.54 84.63h7.07v1.79h-7.07z" fill="#211613"/><path d="m138.07 119.27h4.09v3.94h-4.09z" fill="#dbdcdc"/><path d="m142.16 124.11h-4.09a.89.89 0 0 1 -.89-.9v-3.94a.89.89 0 0 1 .89-.89h4.09a.89.89 0 0 1 .89.89v3.94a.89.89 0 0 1 -.89.9zm-3.2-1.79h2.31v-2.15h-2.27z" fill="#211613"/><ellipse cx="140.11" cy="103.58" fill="#d61619" rx="16.14" ry="16.21"/><path d="m140.11 120.68a17.1 17.1 0 1 1 17-17.1 17.08 17.08 0 0 1 -17 17.1zm0-32.41a15.31 15.31 0 1 0 15.25 15.31 15.3 15.3 0 0 0 -15.25-15.31z" fill="#221714"/><ellipse cx="140.11" cy="103.58" fill="#dbdcdc" rx="12.64" ry="12.7"/><path d="m140.11 117.18a13.6 13.6 0 1 1 13.54-13.6 13.58 13.58 0 0 1 -13.54 13.6zm0-25.4a11.8 11.8 0 1 0 11.75 11.8 11.79 11.79 0 0 0 -11.75-11.8z" fill="#211613"/><path d="m140.45 113.12v-.89-.9a7.3 7.3 0 0 0 5.22-2.17 7.38 7.38 0 0 0 2.15-5.23.89.89 0 0 1 .89-.9.89.89 0 0 1 .9.89 9.13 9.13 0 0 1 -2.68 6.5 9 9 0 0 1 -6.48 2.7z" fill="#211613"/><path d="m136.59 123.18h7.02v12.24h-7.02z" fill="#7d4e22"/><path d="m143.61 136.32h-7a.89.89 0 0 1 -.89-.9v-12.24a.89.89 0 0 1 .89-.89h7a.89.89 0 0 1 .89.89v12.24a.89.89 0 0 1 -.89.9zm-6.13-1.79h5.24v-10.45h-5.24z" fill="#221714"/><path d="m150.46 60.5-1.77-1.77.77-.77v-11.44l-3.92-3.94h-10.8l-3.92 3.94v11.48l3.92 3.94h10.8l.82-.83 1.77 1.77zm-14.35-1.94-1.53-1.56-.46-.46v-8.7l2-2h8.1l2 2v8.33l-2.67-2.68-2.33 2.34 2.69 2.71z" fill="#f4d923"/><path d="m148.13 63.74a.9.9 0 0 1 -.64-.27l-1.13-1.13-.19.19a.89.89 0 0 1 -.63.27h-10.8a.9.9 0 0 1 -.63-.27l-3.92-3.93a.9.9 0 0 1 -.26-.64v-11.44a.86.86 0 0 1 .26-.63l3.92-3.89a.89.89 0 0 1 .63-.26h10.8a.88.88 0 0 1 .63.26l3.92 3.94a.86.86 0 0 1 .26.63v11.43a.9.9 0 0 1 -.26.64l-.13.13 1.13 1.14a.92.92 0 0 1 .26.63.94.94 0 0 1 -.26.64l-2.33 2.33a.9.9 0 0 1 -.63.23zm-1.77-3.57a.9.9 0 0 1 .64.27l1.13 1.13 1.06-1.07-1.13-1.13a.9.9 0 0 1 0-1.27l.51-.51v-10.7l-3.4-3.41h-10.06l-3.39 3.41v10.7l3.39 3.41h10.06l.56-.56a.9.9 0 0 1 .63-.27zm-2.47-.71h-7.78a.89.89 0 0 1 -.63-.27l-2-2a.9.9 0 0 1 -.26-.64v-8.7a.88.88 0 0 1 .26-.63l2-2a.88.88 0 0 1 .63-.26h8.1a.89.89 0 0 1 .63.26l2 2a.88.88 0 0 1 .26.63v8.33a.9.9 0 0 1 -.55.83.91.91 0 0 1 -1-.19l-2-2-1.07 1.07 2.07 2.08a.9.9 0 0 1 -.64 1.53zm-7.41-1.8h5.26l-1.18-1.18a.91.91 0 0 1 0-1.26l2.33-2.34a.92.92 0 0 1 1.27 0l1.14 1.12v-5.8l-1.46-1.47h-7.36l-1.48 1.5v8z" fill="#221714"/></g><path d="m140 133.89a48.49 48.49 0 1 1 48.28-48.48 48.44 48.44 0 0 1 -48.28 48.48zm0-95.17a46.69 46.69 0 1 0 46.5 46.69 46.64 46.64 0 0 0 -46.5-46.69z" fill="#221714"/><path d="m140 133.89a48.49 48.49 0 1 1 48.28-48.48 48.44 48.44 0 0 1 -48.28 48.48zm0-95.17a46.69 46.69 0 1 0 46.5 46.69 46.64 46.64 0 0 0 -46.5-46.69z" fill="#221714"/><path d="m76.08 119.48a7.64 7.64 0 0 0 -2.59-10.48 7.61 7.61 0 0 0 -11.49 6.55 7.77 7.77 0 0 0 1.08 3.93l6.51 9.2z" fill="#d71618"/><path d="m69.58 129.18a.52.52 0 0 1 -.41-.21l-6.5-9.2a8.22 8.22 0 0 1 0-8.37 8.08 8.08 0 0 1 11.1-2.77 8.14 8.14 0 0 1 2.76 11.14l-6.53 9.23a.49.49 0 0 1 -.42.18zm-6.09-10 6.09 8.61 6.09-8.61a7.1 7.1 0 1 0 -13.18-3.66 7.24 7.24 0 0 0 1 3.69z" fill="#221714"/><ellipse cx="69.58" cy="115.36" fill="#a27a51" rx="2.9" ry="2.91"/><path d="m69.58 118.77a3.41 3.41 0 1 1 3.42-3.41 3.41 3.41 0 0 1 -3.42 3.41zm0-5.82a2.42 2.42 0 1 0 2.4 2.41 2.41 2.41 0 0 0 -2.4-2.36z" fill="#221714"/><path d="m266.32 111.82 7.95-3 .72 1.93-7.95 2.99z" fill="#dd5418"/><path d="m260.75 127.22 18.16-6.84.66 1.77-18.16 6.84z" fill="#c5b899"/><path d="m263.88 120.29 3.76 4.08-6.93 2.76a5.38 5.38 0 0 1 3.17-6.84z" fill="#c5b899"/><path d="m264.22 120.29 3.89 4.11 10.68-4-3.59-9.6-8.32 3.12a4.63 4.63 0 0 1 -2.66 6.37z" fill="#915f33"/><path d="m261.37 129.7a.48.48 0 0 1 -.46-.32l-.75-2a.52.52 0 0 1 0-.39.48.48 0 0 1 .28-.26l18.13-6.83a.5.5 0 0 1 .38 0 .49.49 0 0 1 .26.27l.75 2a.51.51 0 0 1 -.29.64l-18.14 6.83a.47.47 0 0 1 -.16.06zm-.11-2.21.4 1.07 17.21-6.48-.4-1.07z" fill="#221714"/><path d="m260.61 127.69a.49.49 0 0 1 -.42-.23.64.64 0 0 1 -.08-.19 6.13 6.13 0 0 1 3.43-7.54c3.08-1.41 4.23-1.93 2.23-7.66a.49.49 0 0 1 .29-.63l8.19-3.1a.5.5 0 0 1 .38 0 .55.55 0 0 1 .26.28l4.31 11.54a.5.5 0 0 1 0 .38.48.48 0 0 1 -.28.26l-18.1 6.83a.53.53 0 0 1 -.21.06zm6.25-15.49c2 5.91.51 6.88-2.91 8.43a5 5 0 0 0 -3 5.89l17.14-6.46-4-10.61z" fill="#221714"/><path d="m267.44 124.85-3.95-4.37.73-.67 3.95 4.37z" fill="#221714"/><path d="m267.03 114.34-.35-.93 8.29-3.13.35.94z" fill="#221714"/><path d="m274.88 121.84a4.21 4.21 0 0 1 2.42-5.36l.35.93a3.21 3.21 0 0 0 -1.84 4.09z" fill="#221714"/><circle cx="269.35" cy="115.2" fill="#221714" r=".78"/><circle cx="269.29" cy="117.9" fill="#221714" r=".78"/><circle cx="267.64" cy="120.15" fill="#221714" r=".78"/><path d="m251.56 107.35 7.91 3.11-.74 1.91-7.91-3.11z" fill="#dd5418"/><path d="m237.17 115.08 18.06 7.1-.69 1.76-18.06-7.1z" fill="#c5b899"/><path d="m244.12 112 .08 5.54-7-2.59s1.8-4.51 6.92-2.95z" fill="#c5b899"/><path d="m244.37 112.24.17 5.66 10.62 4.16 3.73-9.54-8.27-3.23s-1.29 4.53-6.25 2.95z" fill="#915f33"/><path d="m254.36 124.57a.39.39 0 0 1 -.18 0l-18-7.09a.5.5 0 0 1 -.28-.64l.78-2a.45.45 0 0 1 .26-.28.55.55 0 0 1 .38 0l18 7.09a.53.53 0 0 1 .28.27.55.55 0 0 1 0 .38l-.78 2a.49.49 0 0 1 -.46.27zm-17.36-7.87 17.12 6.72.41-1.06-17.11-6.73z" fill="#221714"/><path d="m255.14 122.56a.63.63 0 0 1 -.19 0l-18-7.08a.51.51 0 0 1 -.26-.77c.77-1.46 3-4.69 7.52-3.29 3.23 1 4.44 1.41 6.77-4.19a.48.48 0 0 1 .63-.27l8.16 3.21a.5.5 0 0 1 .28.64l-4.48 11.48a.5.5 0 0 1 -.43.27zm-17.31-7.84 17 6.7 4.17-10.56-7.27-2.86c-2.46 5.73-4.2 5.45-7.79 4.31a4.94 4.94 0 0 0 -6.11 2.41z" fill="#221714"/><path d="m243.74 111.9h.99v5.88h-.99z" fill="#221714" transform="matrix(.99995393 -.00959916 .00959916 .99995393 -1.08 2.33)"/><path d="m258.68 112.96-8.24-3.27.37-.92 8.24 3.26z" fill="#221714"/><path d="m252.21 120.92-.93-.36a4.16 4.16 0 0 1 5.38-2.37l-.36.93a3.17 3.17 0 0 0 -4.09 1.8z" fill="#221714"/><circle cx="251.58" cy="111.9" fill="#221714" r=".78"/><circle cx="249.75" cy="113.84" fill="#221714" r=".78"/><circle cx="247.04" cy="114.44" fill="#221714" r=".78"/><path d="m226.37 52-.21 1.86-2 4h2l-.06 1 4.3-.06s-.54 2.67-2.92 3.15a4.12 4.12 0 0 0 4 2.93l.09 2.46 8.48-.84v-1.17s-3.34-.36-4.18-1.43c0 0 2.48-2.58 2.54-5.19a3.17 3.17 0 0 0 1.22-3.74c-.87-2.43-3.1-.9-3.4.21 0 0-2.54-.51-2-5.19-.04.12-4.07 2.94-7.86 2.01z" fill="#fae1c8"/><path d="m237.8 44.54s-11.34-2.25-11.46 7.19c0 0 5 1 7.76-1.44 0 0-.21 4.26 1.88 5 0 0 1.34-2.07 2.63-1.14s1.46 3.77-.36 4.49a9.62 9.62 0 0 1 -2.18 5.28s2.89 2.69 8.86.15a22.39 22.39 0 0 1 -1.1-7.82c.38-3.44.41-9.85-6.03-11.71z" fill="#ad7e46"/><path d="m231.45 68.05a.51.51 0 0 1 -.34-.13.52.52 0 0 1 -.16-.37v-2.11a5.4 5.4 0 0 1 -4.23-3.27.51.51 0 0 1 0-.4.53.53 0 0 1 .3-.27c1.88-.6 2.48-1.46 2.67-2h-3.63a.49.49 0 0 1 -.49-.5v-.58h-1.67a.5.5 0 0 1 -.43-.24.5.5 0 0 1 0-.49l2.11-4c-.18-3.3.55-5.85 2.19-7.6s4.1-2.65 7.33-2.65c6 0 9.5 3.78 9.5 10.36-.25 3.29-.18 8.92 1 10a.48.48 0 0 1 .17.45.51.51 0 0 1 -.3.39 13.91 13.91 0 0 1 -5 1v1a.5.5 0 0 1 -.45.5l-8.56.78zm-3.58-5.79a4.36 4.36 0 0 0 3.58 2.22.49.49 0 0 1 .49.49v2l7.57-.69v-1.04a.51.51 0 0 1 .15-.35.48.48 0 0 1 .36-.14 12.78 12.78 0 0 0 4.5-.75c-1.43-2.5-1-9.27-.92-10.19 0-6-3-9.34-8.51-9.34-2.94 0-5.16.78-6.61 2.33s-2.1 3.92-1.91 7a.4.4 0 0 1 -.06.26l-1.79 3.38h1.35a.49.49 0 0 1 .5.49v.58h3.71a.51.51 0 0 1 .5.46c0 .09.15 2.1-2.91 3.29z" fill="#221714"/><ellipse cx="229" cy="54.82" fill="#fff" rx="1.46" ry="1.47"/><path d="m229 56.78a2 2 0 1 1 2-2 2 2 0 0 1 -2 2zm0-2.93a1 1 0 1 0 1 1 1 1 0 0 0 -1-1z" fill="#221714"/><path d="m236.13 55.86a.51.51 0 0 1 -.17 0c-2-.72-2.25-3.27-2.21-4.8-3.18 2.12-7.37 1.35-7.56 1.31a.5.5 0 0 1 .19-1s4.77.88 7.62-1.79a.49.49 0 0 1 .57-.08.5.5 0 0 1 .26.52s-.62 4.13 1.47 4.88a.5.5 0 0 1 .3.63.51.51 0 0 1 -.47.33z" fill="#221714"/><path d="m237.27 59.5h-.41a.5.5 0 1 1 .09-1 1.93 1.93 0 0 0 1.56-.43 3.3 3.3 0 0 0 .73-2.2 1.32 1.32 0 1 0 -2.64 0 .5.5 0 0 1 -1 0 2.32 2.32 0 1 1 4.64 0 4.3 4.3 0 0 1 -1.05 2.94 2.68 2.68 0 0 1 -1.92.69z" fill="#221714"/><path d="m240 65.74a9.38 9.38 0 0 1 -4.64-1.36.51.51 0 0 1 -.23-.43.49.49 0 0 1 .24-.42 5.86 5.86 0 0 0 2.29-4.53.51.51 0 0 1 .54-.45.49.49 0 0 1 .45.53 7.28 7.28 0 0 1 -2.14 4.83 8.38 8.38 0 0 0 3.51.87.5.5 0 0 1 0 1z" fill="#221714"/><circle cx="228.42" cy="54.82" fill="#221714" r=".66"/><path d="m190.87 8.91v7.88a3.76 3.76 0 0 0 3.76 3.77h9l3.47 2.94v-2.94h1.19a3.78 3.78 0 0 0 3.71-3.77v-7.88a3.78 3.78 0 0 0 -3.76-3.78h-13.62a3.79 3.79 0 0 0 -3.75 3.78z" fill="#fff"/><path d="m207.07 24a.57.57 0 0 1 -.33-.11l-3.32-2.82h-8.79a4.27 4.27 0 0 1 -4.26-4.27v-7.89a4.31 4.31 0 0 1 4.25-4.27h13.64a4.28 4.28 0 0 1 4.25 4.28v7.88a4.27 4.27 0 0 1 -4.25 4.27h-.7v2.43a.49.49 0 0 1 -.29.45.45.45 0 0 1 -.2.05zm-15.71-15.09v7.88a3.28 3.28 0 0 0 3.27 3.27h9a.47.47 0 0 1 .32.12l2.65 2.24v-1.86a.5.5 0 0 1 .5-.5h1.19a3.28 3.28 0 0 0 3.26-3.27v-7.88a3.28 3.28 0 0 0 -3.26-3.28h-13.67a3.3 3.3 0 0 0 -3.26 3.28z" fill="#221714"/><path d="m197.19 10.06h-2.48a.5.5 0 1 1 0-1h2.48a.5.5 0 0 1 0 1z" fill="#eeac17"/><path d="m197.19 13.27h-2.48a.5.5 0 0 1 -.5-.5.5.5 0 0 1 .5-.5h2.48a.5.5 0 0 1 .49.5.49.49 0 0 1 -.49.5z" fill="#eeac17"/><path d="m197.19 16.48h-2.48a.5.5 0 0 1 -.5-.5.5.5 0 0 1 .5-.5h2.48a.49.49 0 0 1 .49.5.5.5 0 0 1 -.49.5z" fill="#eeac17"/><path d="m202.68 10.06h-2.48a.5.5 0 0 1 0-1h2.48a.5.5 0 1 1 0 1z" fill="#eeac17"/><path d="m202.68 13.27h-2.48a.49.49 0 0 1 -.49-.5.5.5 0 0 1 .49-.5h2.48a.5.5 0 0 1 .5.5.5.5 0 0 1 -.5.5z" fill="#eeac17"/><path d="m202.68 16.48h-2.48a.5.5 0 0 1 -.49-.5.49.49 0 0 1 .49-.5h2.48a.5.5 0 0 1 .5.5.5.5 0 0 1 -.5.5z" fill="#eeac17"/><path d="m208.18 10.06h-2.48a.5.5 0 1 1 0-1h2.48a.5.5 0 0 1 0 1z" fill="#eeac17"/><path d="m208.18 13.27h-2.48a.5.5 0 0 1 -.5-.5.5.5 0 0 1 .5-.5h2.48a.5.5 0 0 1 .49.5.49.49 0 0 1 -.49.5z" fill="#eeac17"/><path d="m208.18 16.48h-2.48a.5.5 0 0 1 -.5-.5.5.5 0 0 1 .5-.5h2.48a.49.49 0 0 1 .49.5.5.5 0 0 1 -.49.5z" fill="#eeac17"/><path d="m58.3 47.95h20.57v13.68h-20.57z" fill="#ccc"/><path d="m78.88 62.13h-20.58a.5.5 0 0 1 -.49-.5v-13.63a.49.49 0 0 1 .49-.5h20.58a.49.49 0 0 1 .49.5v13.63a.5.5 0 0 1 -.49.5zm-20.08-1h19.58v-12.68h-19.58z" fill="#221714"/><ellipse cx="68.59" cy="54.79" fill="#fff" rx="5.16" ry="5.18"/><path d="m68.59 60.47a5.68 5.68 0 1 1 5.65-5.68 5.67 5.67 0 0 1 -5.65 5.68zm0-10.36a4.68 4.68 0 1 0 4.66 4.68 4.68 4.68 0 0 0 -4.66-4.68z" fill="#221714"/><ellipse cx="68.59" cy="54.79" fill="#d1eaf8" rx="3.73" ry="3.74"/><path d="m68.59 59a4.24 4.24 0 1 1 4.22-4.24 4.23 4.23 0 0 1 -4.22 4.24zm0-7.49a3.25 3.25 0 1 0 3.23 3.25 3.25 3.25 0 0 0 -3.23-3.22z" fill="#221714"/><path d="m74.62 49.61h2.58v1.69h-2.58z" fill="#efea3a"/><path d="m77.19 51.8h-2.57a.5.5 0 0 1 -.5-.5v-1.69a.5.5 0 0 1 .5-.5h2.57a.5.5 0 0 1 .5.5v1.69a.5.5 0 0 1 -.5.5zm-2.08-1h1.59v-.69h-1.59z" fill="#221714"/><path d="m71.28 48h-5.41l.56-2.65h4.32z" fill="#ccc"/><path d="m71.28 48.45h-5.41a.5.5 0 0 1 -.49-.6l.56-2.65a.51.51 0 0 1 .49-.4h4.32a.49.49 0 0 1 .48.4l.54 2.65a.47.47 0 0 1 -.11.41.47.47 0 0 1 -.38.19zm-4.8-1h4.19l-.33-1.65h-3.51z" fill="#221714"/><path d="m59.74 6h14.77a4.07 4.07 0 0 1 4.06 4.08v8.53a4.07 4.07 0 0 1 -4.06 4.08h-1.29v3.15l-3.76-3.18h-9.72a4.08 4.08 0 0 1 -4.07-4.08v-8.51a4.05 4.05 0 0 1 4-4.05z" fill="#fff"/><path d="m73.22 26.36a.47.47 0 0 1 -.32-.12l-3.62-3.06h-9.54a4.58 4.58 0 0 1 -4.56-4.58v-8.53a4.55 4.55 0 0 1 4.54-4.55v.5-.5h14.79a4.58 4.58 0 0 1 4.56 4.58v8.53a4.57 4.57 0 0 1 -4.56 4.57h-.8v2.66a.5.5 0 0 1 -.28.45.54.54 0 0 1 -.21.05zm-13.5-19.85a3.56 3.56 0 0 0 -3.55 3.56v8.53a3.58 3.58 0 0 0 3.57 3.58h9.72a.47.47 0 0 1 .32.12l2.94 2.49v-2.08a.5.5 0 0 1 .5-.5h1.29a3.59 3.59 0 0 0 3.57-3.58v-8.53a3.6 3.6 0 0 0 -3.57-3.59z" fill="#221714"/><path d="m67 19.08c-.42-.43-2-2.14-2.77-3.13a5.66 5.66 0 0 1 -1.63-3.63 2.21 2.21 0 0 1 2.17-2.25 2.32 2.32 0 0 1 2.27 1.77 2.33 2.33 0 0 1 2.3-1.74 2.21 2.21 0 0 1 2.16 2.26 5.64 5.64 0 0 1 -1.64 3.64 36.11 36.11 0 0 1 -2.86 3.08z" fill="#dd6987"/><path d="m67 19.57h-.1a.43.43 0 0 1 -.26-.13c-.43-.44-2-2.18-2.81-3.17a6.1 6.1 0 0 1 -1.73-3.94 2.71 2.71 0 0 1 2.65-2.75 2.83 2.83 0 0 1 2.29 1.14 2.81 2.81 0 0 1 2.3-1.11 2.66 2.66 0 0 1 1.89.83 2.69 2.69 0 0 1 .77 1.93 6.06 6.06 0 0 1 -1.79 3.9 35.48 35.48 0 0 1 -2.87 3.14.48.48 0 0 1 -.34.16zm-2.2-9a1.71 1.71 0 0 0 -1.69 1.74 5.22 5.22 0 0 0 1.51 3.32c.63.79 1.78 2.07 2.41 2.74a32.72 32.72 0 0 0 2.43-2.7 5.17 5.17 0 0 0 1.54-3.29v-.05a1.72 1.72 0 0 0 -.47-1.21 1.66 1.66 0 0 0 -1.2-.52 1.81 1.81 0 0 0 -1.77 1.4.49.49 0 0 1 -.48.37.49.49 0 0 1 -.48-.37 1.82 1.82 0 0 0 -1.77-1.43z" fill="#221714"/><path d="m215.89 34.3-10-1.5-.09 4.58s-1.49-2-2.86-.6c-1.56 1.57.08 4 .08 4l-2 2.31s-3.44-2.2-3.12-7.47c.36-6.1 3.76-9.65 9.28-9.32s8.28 3.14 8.71 8z" fill="#67391b"/><path d="m205.76 37.73c-.3-1.11-2.54-2.64-3.4-.21s.63 3.29.63 3.29l-2 2.31a5.43 5.43 0 0 0 .89.69l.06 5.24 8.47.84.09-2.46a4.12 4.12 0 0 0 4-2.93c-2.39-.48-2.92-3.15-2.92-3.15l4.29.06-.06-1h2.19l-2.18-4.1-.26-1.83-9.94-1.59.12 4.89" fill="#fae1c8"/><ellipse cx="212.86" cy="37.25" fill="#fff" rx="1.46" ry="1.47"/><path d="m212.86 39.21a2 2 0 1 1 2-2 2 2 0 0 1 -2 2zm0-2.93a1 1 0 0 0 0 1.94 1 1 0 0 0 0-1.94z" fill="#221714"/><path d="m205.79 38.79a.5.5 0 0 1 -.5-.48l-.14-5.41a.49.49 0 0 1 .31-.52.47.47 0 0 1 .37 0c.64.15 6.34 1 10.1 1.6a.5.5 0 1 1 -.15 1l-5.1-.79-3.52-.55-1-.17.14 4.82a.5.5 0 0 1 -.49.51z" fill="#221714"/><path d="m201.08 43.5a.46.46 0 0 1 -.33-.13.49.49 0 0 1 -.05-.7l1.91-2.19a.5.5 0 0 1 .7 0 .49.49 0 0 1 .05.7l-1.91 2.19a.51.51 0 0 1 -.37.13z" fill="#221714"/><path d="m204.63 41.93a2.68 2.68 0 0 1 -1.93-.72 4.32 4.32 0 0 1 -1-3 2.32 2.32 0 0 1 4.64 0 .5.5 0 0 1 -1 0 1.32 1.32 0 1 0 -2.64 0 3.32 3.32 0 0 0 .73 2.22 1.93 1.93 0 0 0 1.56.43.5.5 0 1 1 .09 1z" fill="#221714"/><circle cx="213.47" cy="37.25" fill="#221714" r=".66"/><path d="m210.47 50.48-8.56-.78a.5.5 0 0 1 -.45-.5v-5.11a9.49 9.49 0 0 1 -4.09-7.83c0-6.58 3.46-10.36 9.5-10.36 3.23 0 5.69.89 7.33 2.65s2.37 4.3 2.19 7.6l2.11 4a.5.5 0 0 1 0 .49.5.5 0 0 1 -.43.24h-1.68v.58a.5.5 0 0 1 -.5.5h-3.62c.18.53.78 1.41 2.67 2a.51.51 0 0 1 .3.26.53.53 0 0 1 0 .41 5.36 5.36 0 0 1 -4.24 3.23v2.14a.52.52 0 0 1 -.16.37.51.51 0 0 1 -.37.11zm-8.06-1.73 7.57.68v-2a.49.49 0 0 1 .47-.49 4.38 4.38 0 0 0 3.6-2.21c-3.06-1.18-2.91-3.21-2.91-3.3a.51.51 0 0 1 .5-.46h3.71v-.58a.5.5 0 0 1 .49-.5h1.36l-1.79-3.37a.4.4 0 0 1 -.06-.26c.19-3.08-.45-5.44-1.91-7s-3.67-2.33-6.61-2.33c-5.49 0-8.51 3.32-8.51 9.36a8.52 8.52 0 0 0 3.79 7.1.52.52 0 0 1 .3.45z" fill="#221714"/><path d="m26.92 80.11h-3.33v3.31l-3.94-3.31h-12.18l-2.28-2.29v-12.92l2.28-2.29h19.45l2.28 2.29v12.92z" fill="#fff"/><path d="m23.59 83.91a.52.52 0 0 1 -.32-.11l-3.8-3.19h-12a.47.47 0 0 1 -.35-.15l-2.28-2.28a.53.53 0 0 1 -.15-.36v-12.92a.53.53 0 0 1 .15-.36l2.28-2.28a.47.47 0 0 1 .35-.15h19.45a.47.47 0 0 1 .35.15l2.28 2.28a.53.53 0 0 1 .15.36v12.92a.53.53 0 0 1 -.15.36l-2.28 2.28a.47.47 0 0 1 -.35.15h-2.84v2.81a.5.5 0 0 1 -.28.45.52.52 0 0 1 -.21.04zm-15.92-4.3h12a.47.47 0 0 1 .32.12l3.12 2.62v-2.24a.5.5 0 0 1 .5-.5h3.13l2-2v-12.51l-2-2h-19l-2 2v12.52z" fill="#221714"/><path d="m10.1 76.79h-.1a1 1 0 0 1 -.79-.48c-.88-1.33.65-3.77 2.14-6.13a12 12 0 0 0 1.65-3.18c-1.37-.3-3.65 1.59-4.43 2.35a.49.49 0 0 1 -.68-.7c.33-.32 3.26-3.13 5.37-2.59a.87.87 0 0 1 .64.53c.31.78-.42 2-1.73 4.08-1.06 1.73-2.67 4.33-2.17 5.1h.06c.65.07 2.61-2.09 4-3.66 2.32-2.56 4.72-5.2 6.51-5.2a1.44 1.44 0 0 1 1.27.6c.62 1-.15 2.73-1 4.6-.52 1.19-1.29 3-1 3.42a.49.49 0 0 0 .41.21c1.31.12 4.34-1.89 5.65-3.26a.49.49 0 0 1 .69 0 .5.5 0 0 1 0 .7c-1.09 1.12-4.48 3.74-6.45 3.55a1.45 1.45 0 0 1 -1.14-.65c-.57-.88.13-2.48.93-4.34.58-1.33 1.37-3.16 1-3.68a.55.55 0 0 0 -.46-.15c-1.36 0-3.81 2.7-5.79 4.88-2.13 2.55-3.51 4-4.58 4z" fill="#e71f19"/><path d="m247.6 27.24v7.88a3.78 3.78 0 0 1 -3.76 3.77h-9l-3.46 2.94v-2.94h-1.19a3.76 3.76 0 0 1 -3.76-3.77v-7.88a3.76 3.76 0 0 1 3.76-3.77h13.63a3.79 3.79 0 0 1 3.78 3.77z" fill="#fff"/><path d="m231.4 42.33a.54.54 0 0 1 -.21 0 .49.49 0 0 1 -.29-.45v-2.49h-.69a4.27 4.27 0 0 1 -4.21-4.27v-7.88a4.27 4.27 0 0 1 4.2-4.24h13.64a4.3 4.3 0 0 1 4.25 4.27v7.88a4.27 4.27 0 0 1 -4.25 4.27h-8.84l-3.32 2.82a.49.49 0 0 1 -.28.09zm12.44-18.33h-13.63a3.29 3.29 0 0 0 -3.27 3.28v7.88a3.29 3.29 0 0 0 3.27 3.28h1.19a.49.49 0 0 1 .49.49v1.87l2.65-2.25a.52.52 0 0 1 .32-.11h9a3.29 3.29 0 0 0 3.26-3.28v-7.92a3.31 3.31 0 0 0 -3.28-3.24z" fill="#221714"/><path d="m240.78 27.9a.49.49 0 0 1 .49-.5h2.49a.49.49 0 0 1 .49.5.5.5 0 0 1 -.49.5h-2.49a.5.5 0 0 1 -.49-.5z" fill="#724598"/><path d="m240.78 31.1a.49.49 0 0 1 .49-.49h2.49a.5.5 0 0 1 0 1h-2.49a.49.49 0 0 1 -.49-.51z" fill="#724598"/><path d="m240.78 34.31a.5.5 0 0 1 .49-.5h2.49a.5.5 0 0 1 .49.5.49.49 0 0 1 -.49.5h-2.49a.49.49 0 0 1 -.49-.5z" fill="#724598"/><path d="m235.28 27.9a.5.5 0 0 1 .5-.5h2.48a.5.5 0 0 1 .5.5.5.5 0 0 1 -.5.5h-2.48a.51.51 0 0 1 -.5-.5z" fill="#724598"/><path d="m235.28 31.1a.5.5 0 0 1 .5-.49h2.48a.5.5 0 1 1 0 1h-2.48a.5.5 0 0 1 -.5-.51z" fill="#724598"/><path d="m235.28 34.31a.51.51 0 0 1 .5-.5h2.48a.5.5 0 0 1 .5.5.5.5 0 0 1 -.5.5h-2.48a.5.5 0 0 1 -.5-.5z" fill="#724598"/><path d="m229.79 27.9a.5.5 0 0 1 .5-.5h2.48a.49.49 0 0 1 .49.5.5.5 0 0 1 -.49.5h-2.48a.5.5 0 0 1 -.5-.5z" fill="#724598"/><path d="m229.79 31.1a.49.49 0 0 1 .5-.49h2.48a.5.5 0 0 1 0 1h-2.48a.5.5 0 0 1 -.5-.51z" fill="#724598"/><path d="m229.79 34.31a.5.5 0 0 1 .5-.5h2.48a.5.5 0 0 1 .49.5.49.49 0 0 1 -.49.5h-2.48a.5.5 0 0 1 -.5-.5z" fill="#724598"/><g fill="#231815"><path d="m27.63 171.18v3.3h4.57l2-13.3h-9.28v-9.18h-3.3v9.15h-4.38v-5.89h-3.3v5.89h-3.3v-3.3h-3.64v-5.85h-3.33v5.85h-3.67v3.3h3.67v16.65l-3.67 1v3.44l10.64-3v-3.44l-3.67 1v-15.7h3.66v3.29h3.31v15a6.54 6.54 0 0 0 6.54 6.61h11.65v-8h-3.3v4.65h-8.35a3.24 3.24 0 0 1 -3.24-3.23v-15h4.38v13.38h3.3v-13.33h5.44l-1 6.71z"/><path d="m204.77 180.18v-18.24h11.02v-3.82h-26.31v3.82h11.31v18.24h-13.56v3.82h30.81v-3.82z"/><path d="m280 168.32-16.64-3.27v-13.54h-4.01v34.45h4.01v-16.86l16.64 3.27z"/><path d="m253.96 185.96-12.9-17.43 8.03-10.46v-2.72h-23.72v3.82h17.86l-20.56 26.79h5.01l10.87-14.15 10.47 14.15z"/><path d="m85.36 154.86-4.98-1.65v3.45l4.98 1.65z"/><path d="m85.36 160.11-4.98 1.65v3.45l4.98-1.65z"/><path d="m109.21 182.34v-16.34h-24.34v16.32h2.18l-3.64 3.68h4.69l3.64-3.61h10.55l3.64 3.61h4.68l-3.61-3.66zm-21-4.69h15v-2.4h-15v-2.14h15v-2.4h-15v-2h17.74v10.92h-17.78z"/><path d="m90.49 154.39v-2.39h-3.3v8.14h3.3v-2.48h7.07c-2.37 3.63-6.8 4.25-8.72 4.33v3.16a14.87 14.87 0 0 0 10.16-4.25 14.69 14.69 0 0 0 9.44 4.09v-3.16a11.39 11.39 0 0 1 -7.61-3.57q.14-.27.27-.57h6.41v2.48h3.3v-5.78z"/><path d="m62.59 177v-12.73h-10.35v12.73zm-3.3-9.67v6.58h-3.75v-6.58z"/><path d="m50.12 185.13 9.58-2.68v-3.43l-9.58 2.67z"/><path d="m46.44 152.85h-3.3v8.28h-3.67v3.3h3.67v13.38l-3.67 1.03v3.44l10.65-3v-3.44l-3.68 1.04v-12.45h3.68v-3.3h-3.68z"/><path d="m75.05 186a47.66 47.66 0 0 1 -4.8-10.68l4.1-8.6h-3.66l-1.8 3.77a87 87 0 0 1 -1.7-9.36h7.39v-3.3h-7.75c-.26-2.86-.32-5-.33-5.84h-3.3c0 .9 0 3 .3 5.84h-13.38v3.3h13.72a84 84 0 0 0 2.86 14l-5.21 10.87h3.65l3.08-6.45a50.91 50.91 0 0 0 3 6.45z"/><path d="m72 156.24a2.62 2.62 0 1 0 -2.62-2.62 2.62 2.62 0 0 0 2.62 2.62z"/><path d="m117.3 156.81 4.98 1.65v-3.45l-4.98-1.65z"/><path d="m117.3 165.06 4.98 1.65v-3.45l-4.98-1.65z"/><path d="m130.34 159.44v14.56h7.66v8.66h-2.11v3.34h5.41v-12h7.06v-14.56h-9.36l.78-3.33h9.7v-3.29h-25v33.18h3.3v-29.89h8.6l-.78 3.33zm14.72 11.56h-11.42v-2.88h9.36v-2.84h-9.31v-2.88h11.42z"/><path d="m117.28 185.98h3.33l1.67-12.65h-3.33z"/><path d="m129.82 185.99h3.38l2.2-9.8h-3.39z"/><path d="m143.44 176.19 2.58 9.8h3.34l.07-.02-2.58-9.78z"/><path d="m164.51 157.14 2.89-5.63h-4.47l-8.91 17.41h4.46l4.08-7.95h14.51l-12.82 24.99h4.47l14.78-28.82z"/></g><g fill="#040000"><path d="m22.43 206.2a2 2 0 0 1 1.57-2.2l.54.8c-.91.25-1.12.52-1.14 1.45h1.26v2.19h-2.2zm3 0a2 2 0 0 1 1.57-2.2l.54.8c-.91.25-1.12.52-1.14 1.45h1.26v2.19h-2.2z"/><path d="m31.73 205.09a12.67 12.67 0 0 0 -.09-1.72h1.72a11.18 11.18 0 0 0 -.09 1.74v1.89h.33a5.49 5.49 0 0 0 1-.06v1.57a7.69 7.69 0 0 0 -1.06-.06h-.28v4.08c.59-.27.75-.35 1.43-.69v1.59a24.43 24.43 0 0 1 -3.7 1.66c-.42.17-.56.23-.78.34l-.32-1.73a7.58 7.58 0 0 0 1.79-.54v-4.71h-.35a6.09 6.09 0 0 0 -1.17.08v-1.53a5.83 5.83 0 0 0 1.17.08h.35zm5.38 9.56c0 .3.11.4.44.46a11.27 11.27 0 0 0 2 .1c1.78 0 2.26-.07 2.48-.38a3.37 3.37 0 0 0 .27-1.79 8 8 0 0 0 1.64.5c-.18 3-.5 3.21-4.77 3.21-3 0-3.69-.29-3.69-1.61v-5.14a1.74 1.74 0 0 1 -.3.09c-.45.15-.61.21-.92.34l-.37-1.63a8.53 8.53 0 0 0 1.46-.33h.13v-2.06a9.08 9.08 0 0 0 -.09-1.59h1.81a11.56 11.56 0 0 0 -.09 1.53v1.64l1.45-.47v-2.61a10.84 10.84 0 0 0 -.07-1.5h1.74a12.47 12.47 0 0 0 -.09 1.53v2.06l2.16-.67a10.13 10.13 0 0 0 1.23-.45c0 .66-.05.76-.07 1.57a30.29 30.29 0 0 1 -.33 4.13c-.2.85-.61 1.1-1.7 1.1-.2 0-.33 0-.71 0a4.29 4.29 0 0 0 -.4-1.54 4.54 4.54 0 0 0 .84.12c.38 0 .47-.06.52-.38a25.87 25.87 0 0 0 .18-2.87l-1.72.54v3.73a10.88 10.88 0 0 0 .09 1.5h-1.74a11.47 11.47 0 0 0 .07-1.54v-3.24l-1.45.47z"/><path d="m59.94 208.54a1.89 1.89 0 0 0 -.14.32l-.07.24a21.61 21.61 0 0 1 -1.7 3.79 8.13 8.13 0 0 0 .87 2 4.63 4.63 0 0 0 .35-1.89 3.84 3.84 0 0 0 1.17 1 6.09 6.09 0 0 1 -.6 2.47.94.94 0 0 1 -.77.5c-.73 0-1.48-.89-2.12-2.51a12.07 12.07 0 0 1 -3 2.63 4 4 0 0 0 -1.2-1.22 12.5 12.5 0 0 0 2.59-1.8 33.34 33.34 0 0 1 -3.64.9c-.72.15-1.32.29-1.56.36l-.26-1.56c-1.08.57-1.46.75-3 1.46l-.35.19-.35-1.74a9.69 9.69 0 0 0 1.63-.55v-4.36h-.33a7.22 7.22 0 0 0 -1.09.07v-1.59a6.17 6.17 0 0 0 1.1.07h.32v-2.22a12.42 12.42 0 0 0 -.09-1.68h1.73a9.81 9.81 0 0 0 -.09 1.68v2.22h.1a6.29 6.29 0 0 0 1.07-.06v1.56a10 10 0 0 0 -1-.05h-.12v3.65c.47-.24.67-.34 1.22-.66v1.62l-.53.3a32.81 32.81 0 0 0 5.36-1v1.32a8.81 8.81 0 0 0 1-1.23 26.27 26.27 0 0 1 -.82-5.91h-3.5a15.74 15.74 0 0 0 -1.7.08v-1.67a12.9 12.9 0 0 0 1.74.09h3.39c0-.42 0-.57 0-.73a8.77 8.77 0 0 0 -.09-1.32h1.64a11.73 11.73 0 0 0 -.07 1.57s0 .3 0 .48h1.66a6.57 6.57 0 0 0 -1.54-1.36l1-.75a7 7 0 0 1 1.57 1.28l-1 .82c.44 0 .74 0 1.1-.07v1.65a15 15 0 0 0 -1.65-.08h-1.11a31.5 31.5 0 0 0 .43 3.93 9.2 9.2 0 0 0 .83-2.7zm-8.95.24c0-.3 0-.72-.05-.95a6.11 6.11 0 0 0 1 0h2.29a5.48 5.48 0 0 0 .85 0 6.23 6.23 0 0 0 0 .65v2.93.91a8.57 8.57 0 0 0 -.94 0h-2.27a7.41 7.41 0 0 0 -.93 0 8.92 8.92 0 0 0 .05-.91zm1.35 2.13h1.33v-1.68h-1.33z"/><path d="m68.3 205.51a10.17 10.17 0 0 1 -1.43 1.26 3.75 3.75 0 0 0 -1-1 6.23 6.23 0 0 0 2.38-2.7l1.58.29-.26.42c-.09.16-.15.25-.31.49h4.39a7.36 7.36 0 0 0 1.24-.06l.89.69c-.12.17-.15.23-.35.51a8 8 0 0 1 -1.32 1.59 6.64 6.64 0 0 0 -1.38-.57 4.41 4.41 0 0 0 1-.89h-2.3c.46 1.49 2 2.28 4.74 2.43a5.22 5.22 0 0 0 -.63 1.47 10.47 10.47 0 0 1 -1.36-.3v1.3 2.78a14.54 14.54 0 0 0 .06 1.59c-.34 0-1 0-1.59 0h-.7a11.13 11.13 0 0 0 4.15 1 6.65 6.65 0 0 0 -.93 1.39 11.52 11.52 0 0 1 -4.89-1.71l.87-.66h-4.15l.91.66a12.18 12.18 0 0 1 -4.75 1.72 6 6 0 0 0 -.92-1.33 10.66 10.66 0 0 0 4-1h-.6c-.69 0-1.21 0-1.59 0 0-.27.06-.87.06-1.5v-2.95a13.05 13.05 0 0 0 -.06-1.56h1.53.78a4.08 4.08 0 0 0 -.63-1c-.87.41-1.05.48-2.16.93l-.66.3-.58-1.54a15.84 15.84 0 0 0 3.67-1.37l.45 1.32-.54.25a7.52 7.52 0 0 0 2.28-.54 2.42 2.42 0 0 0 1.58-1.71zm-3.18.48a10.06 10.06 0 0 0 -2.39-1.47l1-1.14a14.72 14.72 0 0 1 2.43 1.38zm.58 4.49h6.9v-.57h-6.9zm0 1.57h6.9v-.61h-6.9zm0 1.52h6.9v-.57h-6.9zm7-4.76h.51a4.48 4.48 0 0 1 -2.55-2 3.46 3.46 0 0 1 -1.39 1.37 5.54 5.54 0 0 1 -1.68.61z"/><path d="m79.08 207.1a12.1 12.1 0 0 1 2.39 1.83l-1 1.29a10.62 10.62 0 0 0 -2.47-1.95zm2 4.81a21.38 21.38 0 0 1 -1.19 4c-.08.21-.23.55-.44 1l-1.36-1.22a13.69 13.69 0 0 0 1.71-4.54zm-1.43-8.53a11.57 11.57 0 0 1 2.26 1.91l-1.13 1.23a8.87 8.87 0 0 0 -2.29-2.06zm10.18 2.93c.64 0 .93 0 1.33-.05a9.78 9.78 0 0 0 -.05 1.17v3.28a11 11 0 0 0 .05 1.27 8.15 8.15 0 0 0 -1.2-.07h-1.34v3.74c0 1-.39 1.27-1.73 1.27-.26 0-.84 0-1.2 0a3.84 3.84 0 0 0 -.35-1.51c.46 0 1 .12 1.21.12.46 0 .53 0 .53-.35v-3.23h-1.27a9.75 9.75 0 0 0 -1.26.07 7 7 0 0 0 .07-1.17v-3.33c0-.47 0-1-.05-1.23.42 0 .84.06 1.38.06h.69a7 7 0 0 0 .39-1.05h-3.19v1.7a43.24 43.24 0 0 1 -.3 4.87 13.41 13.41 0 0 1 -1.64 5 4.56 4.56 0 0 0 -1.24-1.39 9.39 9.39 0 0 0 1-2.31 25 25 0 0 0 .61-5.88v-1.68a19 19 0 0 0 -.07-1.95 11.17 11.17 0 0 0 1.58.08h6.27a16.29 16.29 0 0 0 1.76-.08v1.62c-.39 0-1-.07-1.73-.07h-1.4c-.18.49-.24.65-.42 1.05zm-3.6 6.37a8.44 8.44 0 0 1 -1.91 3.87 3.24 3.24 0 0 0 -1.15-1.05 6.35 6.35 0 0 0 1.7-3.27zm-.15-4.21h3.53v-.86h-3.51zm0 2.1h3.53v-.89h-3.51zm4.44 1.68a7.13 7.13 0 0 0 1.74 3 4 4 0 0 0 -1.17 1.2 11.54 11.54 0 0 1 -1.86-3.72z"/><path d="m100 212.33c-.85 1.94-1.81 2.83-3 2.83-1.71 0-2.94-1.75-2.94-4.16a6.41 6.41 0 0 1 1.65-4.36 6.73 6.73 0 0 1 5.16-2.1c3.6 0 5.93 2.19 5.93 5.56a5.78 5.78 0 0 1 -3.64 5.6 9.72 9.72 0 0 1 -2.36.63 4.69 4.69 0 0 0 -.91-1.76 8.14 8.14 0 0 0 3-.82 4.21 4.21 0 0 0 2.08-3.75 3.74 3.74 0 0 0 -1.84-3.34 3.44 3.44 0 0 0 -1.52-.44 21.46 21.46 0 0 1 -1.61 6.11zm-2.24-5.33a5 5 0 0 0 -2 4.05c0 1.23.52 2.2 1.18 2.2.5 0 1-.63 1.55-1.92a20.14 20.14 0 0 0 1.24-5.07 3.75 3.75 0 0 0 -1.97.74z"/><path d="m111.89 205.87a14 14 0 0 1 -2.24 2.61 6.17 6.17 0 0 0 -1.17-1.17 10.86 10.86 0 0 0 2.72-3.39 3 3 0 0 0 .33-.94l1.8.27c-.14.25-.14.25-.53 1.05h6.92a11.45 11.45 0 0 0 1.87-.11v1.81a15.62 15.62 0 0 0 -1.87-.09zm5 10.8a33 33 0 0 0 -2.61-2.31 18 18 0 0 1 -4.33 2.7 5.88 5.88 0 0 0 -1.13-1.41 16.73 16.73 0 0 0 4.16-2.28 29.69 29.69 0 0 0 -2.61-1.71l1.09-1c1.1.63 1.59.94 2.66 1.66a5.48 5.48 0 0 0 1.3-1.92l1.61.76c-.16.17-.32.4-.65.84a12.06 12.06 0 0 1 -1 1.25c.91.72 1.66 1.33 2.61 2.17zm-5.82-6.43a12.57 12.57 0 0 0 -1.72.09v-1.58a7.25 7.25 0 0 0 1.29.08h7.61a16.79 16.79 0 0 0 1.76-.06 10.24 10.24 0 0 0 -.07 1.36 14.38 14.38 0 0 0 .42 3.86 1.82 1.82 0 0 0 .52 1 4.8 4.8 0 0 0 .36-2.21 4.59 4.59 0 0 0 1.29.9c-.24 2.35-.71 3.31-1.62 3.31-.67 0-1.44-.78-1.86-1.92a13.76 13.76 0 0 1 -.69-4.84zm.36-3.69a9.62 9.62 0 0 0 1.13.06h6.28a11.45 11.45 0 0 0 1.59-.08v1.47a11.06 11.06 0 0 0 -1.59-.08h-6a13.84 13.84 0 0 0 -1.43.06z"/><path d="m136.05 210.54h.24a10.39 10.39 0 0 0 1.47-.08v1.61a9.11 9.11 0 0 0 -1.47-.09h-.24v3.6a1.32 1.32 0 0 1 -.37 1 2.56 2.56 0 0 1 -1.77.39c-.33 0-.59 0-1.38-.06a5.37 5.37 0 0 0 -.44-1.59 10.24 10.24 0 0 0 1.7.16c.51 0 .64-.07.64-.4v-3.08h-3.78a13.8 13.8 0 0 0 -1.68.07v-1.32c-.69.31-.85.38-1.3.56v4.25c0 1.19-.39 1.47-2 1.47h-1a5.24 5.24 0 0 0 -.34-1.53c.55 0 .93.07 1.26.07s.49-.09.49-.45v-3.22l-1 .37-.58.21-.24-1.66a9.47 9.47 0 0 0 1.87-.5v-2.77h-.67a7.69 7.69 0 0 0 -1.1.06v-1.61a5 5 0 0 0 1.11.09h.66v-1.24a8.19 8.19 0 0 0 -.09-1.52h1.76a8 8 0 0 0 -.09 1.5v1.26h.48a4.24 4.24 0 0 0 .81-.09v1.56a7.1 7.1 0 0 0 -.83 0h-.49v2.24a10.2 10.2 0 0 0 1.24-.49h-.07v-1.56c.37 0 1 .07 1.67.07h1.82v-1.48h-1.34a10.58 10.58 0 0 0 -1.52.07v-1.59a10 10 0 0 0 1.52.09h1.36v-.45a6.6 6.6 0 0 0 -.09-1.12h1.73a4.8 4.8 0 0 0 -.09 1.11v.46h1.77a10.27 10.27 0 0 0 1.53-.09v1.59a10.5 10.5 0 0 0 -1.51-.07h-1.79v1.48h2.17a12.75 12.75 0 0 0 1.7-.09v1.58a14.15 14.15 0 0 0 -1.74-.08zm-5.54-1.34c-.47 0-1.22 0-1.52.05v1.21a12.65 12.65 0 0 0 1.66.08h3.78v-1.34zm.41 3a12.73 12.73 0 0 1 1.77 2.27l-1.3 1a10 10 0 0 0 -1.76-2.38z"/><path d="m139.62 205.65a13.89 13.89 0 0 0 3.24.25 12.5 12.5 0 0 0 .42-2.47l2 .16a8.38 8.38 0 0 0 -.24.87c-.27 1.13-.27 1.13-.36 1.41 1.14 0 2.84-.15 3.82-.27a9.7 9.7 0 0 0 1.92-.34l.09 1.81a7.06 7.06 0 0 0 -.86.08c-2.18.24-3.5.34-5.37.39a20.55 20.55 0 0 1 -1.19 3 6.94 6.94 0 0 1 3.78-1c2.64 0 4.21 1.14 4.21 3 0 2.22-2.14 3.66-5.42 3.66a13.9 13.9 0 0 1 -3.83-.52 8.27 8.27 0 0 0 -.15-1.91 11.41 11.41 0 0 0 3.87.72c2.18 0 3.58-.76 3.58-2 0-.92-.89-1.43-2.51-1.43a7.64 7.64 0 0 0 -3.23.73 2.63 2.63 0 0 0 -1.1.87l-1.81-.63a10.38 10.38 0 0 0 .71-1.35 34.79 34.79 0 0 0 1.26-3.33c-.8 0-1.47 0-2.27-.11h-.6z"/><path d="m154.34 216.29c0-.26 0-.35-.08-.7a26.62 26.62 0 0 1 -.39-4.48 28.48 28.48 0 0 1 .62-5.87 10.44 10.44 0 0 0 .22-1.39l2 .21a20.61 20.61 0 0 0 -.94 4.48 24.15 24.15 0 0 0 -.23 3.32v.82a15.6 15.6 0 0 1 .78-2l1.2.54a12.19 12.19 0 0 0 -1.33 4.55v.4zm6.38-5.92a3.37 3.37 0 0 0 -1.06 2.16c0 .85.82 1.3 2.39 1.3a10.77 10.77 0 0 0 3.56-.56l.15 1.9c-.21 0-.26 0-.61.09a17.89 17.89 0 0 1 -3.1.28c-1.87 0-3.06-.42-3.72-1.3a2.47 2.47 0 0 1 -.45-1.47 4.89 4.89 0 0 1 1.38-3.09zm-2.47-5a10.82 10.82 0 0 0 2.77.24 16.48 16.48 0 0 0 4.08-.41l.09 1.82-1.06.13a26.87 26.87 0 0 1 -3.21.18 18.39 18.39 0 0 1 -2.7-.16z"/><path d="m173.4 203.59a7.91 7.91 0 0 0 -.24 1c-.07.36-.15.66-.32 1.31a12.71 12.71 0 0 0 2.41-.41v1.72a3.86 3.86 0 0 0 -.48.08c-.54.09-1.46.19-2.38.27a28.52 28.52 0 0 1 -1.66 4.34c-.34.74-.47 1-1.05 2.06l-.28.54-1.72-1a13.78 13.78 0 0 0 1.45-2.4 22.78 22.78 0 0 0 1.41-3.54h-2.34v-1.71a10.88 10.88 0 0 0 2 .13h.8a15 15 0 0 0 .45-2.61zm6.79 12.15a9 9 0 0 0 -2.29-1.86 2.44 2.44 0 0 1 0 .3 2.34 2.34 0 0 1 -.65 1.59 3.44 3.44 0 0 1 -2.48.84c-2 0-3.28-1-3.28-2.52s1.34-2.58 3.24-2.58a7.08 7.08 0 0 1 1.4.14c0-.69-.07-1.28-.07-1.73a7.11 7.11 0 0 1 .12-1.51l1.73.09a5.3 5.3 0 0 0 -.18 1.51 17.15 17.15 0 0 0 .14 2.06 8.94 8.94 0 0 1 2.37 1.38c.22.14.28.21.53.4a1.42 1.42 0 0 0 .22.21zm-5.32-2.74c-1 0-1.61.4-1.61 1s.54 1 1.47 1 1.52-.42 1.52-1.25c0-.16 0-.51 0-.51a3.78 3.78 0 0 0 -1.38-.24zm5.4-4.16a18.46 18.46 0 0 0 -4.32-2.1l.9-1.45a23.5 23.5 0 0 1 4.23 2z"/><path d="m183.12 209a6.74 6.74 0 0 0 1.56-.28 21.19 21.19 0 0 1 4.63-.63c1.71 0 2.87.49 3.54 1.53a3.37 3.37 0 0 1 .56 1.94c0 2-1.41 3.61-3.79 4.36a14.93 14.93 0 0 1 -3.26.57 4.86 4.86 0 0 0 -.64-1.71h.22a12.62 12.62 0 0 0 2.13-.23 5.33 5.33 0 0 0 2.51-1 2.42 2.42 0 0 0 1.06-2c0-1.17-.87-1.8-2.46-1.8a16.65 16.65 0 0 0 -3.94.58 9.72 9.72 0 0 0 -1.74.52z"/><path d="m195 205.41h.57c.27 0 .27 0 2.47-.15.84 0 3.33-.18 7.48-.37a8.88 8.88 0 0 0 1.73-.15l.1 1.91h-.35a6.71 6.71 0 0 0 -3 .81c-1.9 1-3 2.49-3 4a2.52 2.52 0 0 0 2 2.45 9.27 9.27 0 0 0 2.23.39h.3l-.27 2a2 2 0 0 0 -.51-.09 9.23 9.23 0 0 1 -3.51-1 4 4 0 0 1 -2.15-3.62 5.34 5.34 0 0 1 1.43-3.54 6.64 6.64 0 0 1 2.08-1.5c-1.21.18-1.8.23-5 .47a21 21 0 0 0 -2.49.3z"/><path d="m211.65 208.75a16.39 16.39 0 0 0 -1.93.09v-1.63a13.91 13.91 0 0 0 1.93.09h3.28v-1.22h-2.05c-.83 0-1.24 0-1.7.06v-1.62a12 12 0 0 0 1.7.09h2.05v-.16a5.66 5.66 0 0 0 -.09-1.23h1.8a7.38 7.38 0 0 0 -.09 1.23v.16h1.16a11.89 11.89 0 0 0 1.69-.09v1.14a9 9 0 0 0 1.67-2.13l1.47 1a2.51 2.51 0 0 0 -.21.23 22.81 22.81 0 0 1 -2.58 2.55h1.6a12.74 12.74 0 0 0 1.82-.09v1.63a15.12 15.12 0 0 0 -1.83-.09h-3.45a20.68 20.68 0 0 1 -2.25 1.4v.09a32.91 32.91 0 0 0 4.18-.53 6.22 6.22 0 0 0 1.44-.39l1.05 1.38c-.21.05-1.7.33-2 .38-1.72.25-3.61.45-5.09.54 0 0-.1.24-.23.58h5a10.9 10.9 0 0 0 1.57-.06 1.47 1.47 0 0 0 0 .19c0 .09-.06.46-.09.71a8.68 8.68 0 0 1 -.65 3.06c-.36.68-.94.9-2.44.9-.44 0-1.32 0-2.06-.1a4 4 0 0 0 -.38-1.62 19.09 19.09 0 0 0 2.5.21c.55 0 .76-.08.93-.33a3.76 3.76 0 0 0 .39-1.52h-5.23c-.14.33-.23.51-.49 1l-1.69-.28a19.82 19.82 0 0 0 1.41-3.19 34.55 34.55 0 0 1 -3.37 1.44 5.66 5.66 0 0 0 -.9-1.41 29 29 0 0 0 6-2.46zm5.86-1.45c.63-.48 1-.78 1.43-1.19-.38 0-.55 0-1.06 0h-1.33v1.22z"/><path d="m226.22 207.45a7 7 0 0 0 .88 0 51.77 51.77 0 0 0 5.33-.33 4 4 0 0 0 1.2-.24l1 1.29a11 11 0 0 0 -1.28 1.12c-.8.79-2.09 1.94-2.56 2.3a2.42 2.42 0 0 1 .92-.18 1.35 1.35 0 0 1 1.24.63 2.44 2.44 0 0 1 .33 1.38c.11 1.19.3 1.4 1.29 1.4a8 8 0 0 0 3-.57l.23 1.86a9.57 9.57 0 0 0 -1.32.18 13.7 13.7 0 0 1 -2.1.17 2.89 2.89 0 0 1 -2.1-.56c-.42-.4-.54-.75-.61-1.94a2.65 2.65 0 0 0 -.15-1 .69.69 0 0 0 -.63-.31c-.71 0-1.38.42-2.6 1.59-.76.73-1.57 1.6-2.11 2.23l-1.43-1.47a29.69 29.69 0 0 0 3.48-3l1.74-1.65c.4-.39 1-.94 1.75-1.66-.85.13-1.25.19-1.95.25l-1.51.12-.78.07c-.56 0-.66.07-1.16.13zm1.86-3.89a21.1 21.1 0 0 0 6 .84l-.29 1.68a28.14 28.14 0 0 1 -6.22-.88z"/><path d="m243.65 209.64a7.29 7.29 0 0 1 3.15-.69c2.56 0 4.21 1.32 4.21 3.37a3.66 3.66 0 0 1 -2 3.31 7.35 7.35 0 0 1 -3.63.86 5.07 5.07 0 0 1 -2.91-.69 2.14 2.14 0 0 1 -.9-1.72 2.31 2.31 0 0 1 2.58-2.15 3.25 3.25 0 0 1 2.6 1.23 4 4 0 0 1 .68 1.35c1.25-.47 1.79-1.11 1.79-2.18s-1.16-1.93-3-1.93a9.27 9.27 0 0 0 -6.18 2.52l-1-1.62a13.61 13.61 0 0 0 2.12-1.41 49.12 49.12 0 0 0 4.48-3.9l.27-.27c-.57.07-1.53.13-4.25.25a5.11 5.11 0 0 0 -.72.08l-.07-1.8a13.45 13.45 0 0 0 1.76.09c1.28 0 3.11-.08 4.57-.18a2.34 2.34 0 0 0 .93-.2l.92 1.32a3.54 3.54 0 0 0 -.77.62c-.75.69-1.85 1.66-2.36 2.1-.27.22-1.35 1-1.65 1.23s-.37.25-.61.39zm.44 3.73c-.54 0-.88.27-.88.69 0 .6.68.94 1.79.94a4.89 4.89 0 0 0 .78-.05c-.27-1.04-.85-1.58-1.69-1.58z"/><path d="m255.08 206.26a2 2 0 0 1 -1.55 2.25l-.54-.79c.92-.26 1.13-.53 1.14-1.46h-1.26v-2.19h2.21zm3 0a2 2 0 0 1 -1.55 2.25l-.54-.79c.92-.26 1.13-.53 1.14-1.46h-1.23v-2.19h2.21z"/><path d="m68.07 227.48a4.09 4.09 0 0 0 -.26 1.07c-.47 3.51-1.18 5.28-2.74 6.95a12.07 12.07 0 0 1 -4.65 3 6.65 6.65 0 0 0 -1.23-1.72 9.77 9.77 0 0 0 3-1.39c2.15-1.46 3.28-3.66 3.57-6.92h-7.13v2.23a7.69 7.69 0 0 0 0 1.32h-2a10 10 0 0 0 .06-1.29v-2.87a8.07 8.07 0 0 0 -.05-1.21c.41 0 .89.07 1.24.07h7.26a6.52 6.52 0 0 0 1.85-.16z"/><path d="m70.41 231a16.19 16.19 0 0 0 2.43.1h8a16.11 16.11 0 0 0 2.42-.1v2.08a15.37 15.37 0 0 0 -2.44-.08h-8a15.44 15.44 0 0 0 -2.44.08z"/><path d="m97.45 228.23a2.78 2.78 0 0 0 -.37.9 15.66 15.66 0 0 1 -3.08 5.79 15.34 15.34 0 0 1 -5.34 3.81 4.53 4.53 0 0 0 -1.28-1.57 13.64 13.64 0 0 0 3.29-1.78 11.86 11.86 0 0 0 4.37-6.32l-4.51.07a14.67 14.67 0 0 1 -3.53 3.87 4.1 4.1 0 0 0 -1.45-1.29 11.57 11.57 0 0 0 3.88-4.35 5.26 5.26 0 0 0 .76-2l2.06.41a2.94 2.94 0 0 0 -.26.46l-.19.42c0 .09 0 .09-.19.39a2.81 2.81 0 0 1 -.25.48h.72 3.29a2.63 2.63 0 0 0 1.09-.15z"/><path d="m100.64 229.55a21.06 21.06 0 0 1 4 2l-.94 1.7a17.14 17.14 0 0 0 -4.06-2.21zm-.68 6.72a13.7 13.7 0 0 0 4.34-1 9.15 9.15 0 0 0 4.33-3.29 11.3 11.3 0 0 0 1.74-3.32 7.64 7.64 0 0 0 1.56 1.34 13.2 13.2 0 0 1 -2.25 3.79c-1.91 2.19-4.46 3.52-8.14 4.26a9.37 9.37 0 0 0 -1.06.24zm1.83-10.35a23.49 23.49 0 0 1 4 1.94l-1 1.65a17.24 17.24 0 0 0 -4-2.07z"/><path d="m115.92 238.07a8.8 8.8 0 0 0 -1.35.06v-1.67a6.44 6.44 0 0 0 1.35.11h5.76v-2.26h-5.22a8.8 8.8 0 0 0 -1.35.06v-1.64a6.4 6.4 0 0 0 1.35.1h5.22v-2.08h-5.61a10.68 10.68 0 0 0 -1.35.06v-1.66a7.3 7.3 0 0 0 1.35.1h5.93a12 12 0 0 0 1.4-.06v1.58 6.86a7 7 0 0 0 .06 1.15h-1.72v-.71z"/><path d="m128.51 229.21a17.16 17.16 0 0 1 1.46 3.55l-1.69.54a15.29 15.29 0 0 0 -1.36-3.63zm8.6.1a3.22 3.22 0 0 0 -.21.77 12.67 12.67 0 0 1 -2.07 5 11.49 11.49 0 0 1 -4.57 3.61 5.58 5.58 0 0 0 -1.2-1.48 10.12 10.12 0 0 0 2.55-1.38 8.62 8.62 0 0 0 3.4-5.2 6.48 6.48 0 0 0 .27-1.73zm-5.41-.72a14.88 14.88 0 0 1 1.45 3.45l-1.66.53a16.24 16.24 0 0 0 -1.36-3.53z"/><path d="m148.6 226.93h.89a1.74 1.74 0 1 1 1.73 1.72h-.29a13.46 13.46 0 0 1 -8.61 9.95 5.36 5.36 0 0 0 -1.32-1.79 10.87 10.87 0 0 0 7.83-8.07h-7.14a11.39 11.39 0 0 0 -1.89.09v-2a10.17 10.17 0 0 0 1.92.11zm1.64-.05a1 1 0 1 0 2 0 1 1 0 0 0 -2 0z"/><path d="m163.65 226.93h.89a1.72 1.72 0 0 1 1.72-1.74 1.73 1.73 0 1 1 0 3.46h-.29a13.47 13.47 0 0 1 -8.6 9.95 5.65 5.65 0 0 0 -1.32-1.79 10.89 10.89 0 0 0 7.83-8.07h-7.14a11.53 11.53 0 0 0 -1.9.09v-2a10.3 10.3 0 0 0 1.92.11zm1.64-.05a1 1 0 0 0 1 1 1 1 0 0 0 1-1 1 1 0 0 0 -1-1 1 1 0 0 0 -1 1z"/><path d="m171.63 237v1h-1.93a11 11 0 0 0 .06-1.29v-8.6a10.87 10.87 0 0 0 -.06-1.25h1.27 8.52 1.26c0 .39-.05.69-.05 1.24v8.58a11.41 11.41 0 0 0 .06 1.31h-1.93v-1zm7.2-8.35h-7.2v6.64h7.2z"/><path d="m195.06 228.52a3.18 3.18 0 0 0 -.38.89 14.68 14.68 0 0 1 -3 5.67 14.92 14.92 0 0 1 -5.34 3.8 4.88 4.88 0 0 0 -1.28-1.58 12.07 12.07 0 0 0 7.67-8.08l-4.51.06a15.14 15.14 0 0 1 -3.52 3.86 3.85 3.85 0 0 0 -1.45-1.29 12 12 0 0 0 3.89-4.35 6.07 6.07 0 0 0 .76-2l2.05.42a2 2 0 0 0 -.25.45c-.12.27-.26.57-.41.87l-.1.21-.12.23a6.83 6.83 0 0 1 .72 0l3.28-.05a6 6 0 0 0 .78 0 8.89 8.89 0 0 0 -1.09-1.87l1.11-.38a9.52 9.52 0 0 1 1.33 2.37l-.64.24zm1-1.08a10.18 10.18 0 0 0 -1.29-2.33l1.08-.37a8.46 8.46 0 0 1 1.32 2.28z"/><path d="m210.34 230.58a6.64 6.64 0 0 0 -.41.95 10.6 10.6 0 0 1 -3.49 5.07 13.28 13.28 0 0 1 -3.93 2 5 5 0 0 0 -1.17-1.74 9.6 9.6 0 0 0 4.17-2 7.71 7.71 0 0 0 2.42-3.51h-7.3a15 15 0 0 0 -1.92.08v-1.83a10.63 10.63 0 0 0 1.95.1h7.14a6.31 6.31 0 0 0 1.69-.14zm-10.34-4.58a8.39 8.39 0 0 0 1.75.11h5.25a8.39 8.39 0 0 0 1.75-.11v1.85a11.26 11.26 0 0 0 -1.72-.08h-5.29a11.33 11.33 0 0 0 -1.73.08z"/><path d="m218.89 226.09a5.06 5.06 0 0 0 -.38 1.07 88.12 88.12 0 0 1 -3 8.55 56.84 56.84 0 0 0 6.23-.76c-.16-.36-.34-.69-.7-1.37a18.55 18.55 0 0 0 -1.43-2.38l1.7-.66a35.52 35.52 0 0 1 3.63 7l-1.82.94a14.3 14.3 0 0 0 -.72-1.86l-.54.12c-1.51.31-4 .63-8.48 1.06a7.89 7.89 0 0 0 -1.37.19l-.27-2h.39 1.29c.8-1.89 1.39-3.59 2.18-6.05a23.54 23.54 0 0 0 1.09-4.15z"/></g></svg>